<svg width="40" height="40" viewBox="0 0 40 40" fill="none" xmlns="http://www.w3.org/2000/svg">
  <g clip-path="url(#clip0_1344_49998)">
    <path d="M20 0L21.6239 2.47508L23.675 0.340538L24.8165 3.07187L27.2248 1.35056L27.845 4.24513L30.5286 2.99566L30.6064 5.9549L33.4739 5.21982L33.0066 8.14296L35.9603 7.94731L34.9638 10.7348L37.9033 11.0852L36.4115 13.6421L39.2365 14.5267L37.3003 16.766L39.9147 18.1546L37.6 20L39.9147 21.8454L37.3003 23.234L39.2365 25.4733L36.4115 26.3579L37.9033 28.9148L34.9638 29.2652L35.9603 32.0527L33.0066 31.857L33.4739 34.7802L30.6064 34.0451L30.5286 37.0043L27.845 35.7549L27.2248 38.6494L24.8165 36.9281L23.675 39.6595L21.6239 37.5249L20 40L18.3761 37.5249L16.325 39.6595L15.1835 36.9281L12.7752 38.6494L12.155 35.7549L9.47136 37.0043L9.39363 34.0451L6.52609 34.7802L6.99344 31.857L4.03966 32.0527L5.03618 29.2652L2.09674 28.9148L3.58849 26.3579L0.763487 25.4733L2.69967 23.234L0.0853157 21.8454L2.4 20L0.0853157 18.1546L2.69967 16.766L0.763487 14.5267L3.58849 13.6421L2.09674 11.0852L5.03618 10.7348L4.03966 7.94731L6.99344 8.14296L6.52609 5.21982L9.39363 5.9549L9.47136 2.99566L12.155 4.24513L12.7752 1.35056L15.1835 3.07187L16.325 0.340538L18.3761 2.47508L20 0Z" fill="#374981"/>
    <path d="M3.3335 8.14814V5.18518H36.6668V8.14814H3.3335Z" fill="#FF993E"/>
    <path d="M7.58713 6.77068C7.59364 6.728 7.58966 6.6922 7.5752 6.66326C7.56073 6.6336 7.53975 6.60901 7.51226 6.58948C7.4855 6.56922 7.45511 6.55222 7.42112 6.53848C7.38712 6.52474 7.35348 6.51171 7.3202 6.49942C7.26523 6.47989 7.21097 6.45674 7.15744 6.42997C7.10391 6.40321 7.05545 6.37138 7.01204 6.33449C6.96936 6.29759 6.93609 6.25419 6.91222 6.20428C6.88835 6.15364 6.87858 6.09469 6.88292 6.02741C6.88871 5.95146 6.91005 5.88563 6.94694 5.82993C6.98456 5.77351 7.0323 5.72685 7.09017 5.68995C7.14804 5.65306 7.21134 5.62594 7.28006 5.60857C7.34878 5.59049 7.41714 5.58217 7.48513 5.58362C7.58134 5.58579 7.66706 5.6064 7.7423 5.64547C7.81753 5.68453 7.87648 5.73987 7.91916 5.81148C7.96184 5.8831 7.98137 5.96809 7.97776 6.06647H7.713C7.71734 6.0115 7.71047 5.96448 7.69238 5.92541C7.67502 5.88563 7.64753 5.85489 7.60992 5.83318C7.5723 5.81076 7.52564 5.79919 7.46994 5.79846C7.42003 5.79702 7.37193 5.80461 7.32563 5.82125C7.27933 5.83716 7.23991 5.86212 7.20736 5.89612C7.17553 5.93012 7.15564 5.97388 7.14768 6.02741C7.14189 6.06503 7.14695 6.09758 7.16287 6.12507C7.17951 6.15256 7.20229 6.1757 7.23123 6.19451C7.26016 6.21332 7.29127 6.22923 7.32454 6.24226C7.35782 6.25528 7.38893 6.26685 7.41786 6.27698C7.47645 6.29723 7.53252 6.32147 7.58605 6.34968C7.6403 6.37717 7.6884 6.41008 7.73036 6.44842C7.77232 6.48676 7.80451 6.53233 7.82693 6.58514C7.84936 6.63722 7.85804 6.69835 7.85297 6.76851C7.84646 6.84592 7.82476 6.91283 7.78787 6.96925C7.75098 7.02495 7.70396 7.07052 7.64681 7.10597C7.58966 7.14142 7.52673 7.16746 7.45801 7.1841C7.38929 7.20073 7.31984 7.20833 7.24967 7.20688C7.17517 7.20616 7.10464 7.19458 7.03809 7.17216C6.97226 7.14974 6.91439 7.11718 6.86447 7.0745C6.81456 7.0311 6.77586 6.97866 6.74837 6.91717C6.72161 6.85568 6.70967 6.78551 6.71257 6.70667L6.97732 6.70775C6.97443 6.75405 6.97877 6.79528 6.99034 6.83145C7.00264 6.86689 7.02145 6.89655 7.04677 6.92042C7.07208 6.9443 7.10283 6.96238 7.139 6.97468C7.17589 6.98697 7.21712 6.99312 7.2627 6.99312C7.31189 6.99457 7.35963 6.9877 7.40592 6.97251C7.45294 6.95732 7.49273 6.93344 7.52528 6.90089C7.55856 6.86762 7.57917 6.82421 7.58713 6.77068ZM8.72645 6.89547L8.87945 6.01114H9.13553L8.93153 7.18518H8.69065L8.72645 6.89547ZM8.79807 6.66435L8.8827 6.66109C8.87402 6.73198 8.85811 6.8007 8.83496 6.86726C8.81181 6.93308 8.78035 6.99204 8.74056 7.04412C8.70077 7.0962 8.65122 7.13708 8.59191 7.16673C8.53259 7.19639 8.46278 7.21014 8.38249 7.20797C8.31811 7.2058 8.26385 7.19314 8.21973 7.16999C8.17632 7.14612 8.14196 7.11393 8.11665 7.07342C8.09133 7.03291 8.07433 6.98661 8.06565 6.93453C8.05769 6.88245 8.0566 6.82747 8.06239 6.7696L8.18934 6.01114H8.44434L8.3163 6.77285C8.31413 6.80107 8.31413 6.82819 8.3163 6.85423C8.31847 6.88028 8.32462 6.90379 8.33474 6.92476C8.34487 6.94574 8.3597 6.96274 8.37923 6.97576C8.39949 6.98806 8.42589 6.99493 8.45844 6.99638C8.52789 6.99855 8.58576 6.98517 8.63205 6.95623C8.67907 6.92657 8.71597 6.88606 8.74273 6.8347C8.77022 6.78334 8.78866 6.72656 8.79807 6.66435ZM9.6097 6.25202L9.36882 7.63657H9.11274L9.39486 6.01114H9.63032L9.6097 6.25202ZM10.2911 6.5808L10.289 6.60358C10.2803 6.67447 10.2633 6.74609 10.238 6.81843C10.2134 6.89004 10.1797 6.95587 10.137 7.01591C10.0951 7.07523 10.0434 7.12261 9.98188 7.15805C9.92039 7.1935 9.84805 7.21014 9.76487 7.20797C9.6918 7.20652 9.63032 7.18916 9.5804 7.15588C9.53049 7.12188 9.4907 7.07776 9.46105 7.02351C9.43139 6.96925 9.41041 6.90993 9.39811 6.84555C9.38654 6.78045 9.3822 6.71607 9.38509 6.65241L9.39594 6.56561C9.40752 6.49688 9.42705 6.42816 9.45454 6.35944C9.48275 6.29072 9.51892 6.22815 9.56304 6.17173C9.60717 6.11458 9.65961 6.06937 9.72038 6.03609C9.78114 6.00282 9.85095 5.98726 9.9298 5.98943C10.0101 5.9916 10.0756 6.01077 10.1262 6.04694C10.1768 6.08311 10.2152 6.13013 10.2412 6.188C10.268 6.24587 10.2846 6.30917 10.2911 6.37789C10.2984 6.44661 10.2984 6.51425 10.2911 6.5808ZM10.0329 6.6025L10.0361 6.57863C10.0397 6.54173 10.0408 6.50159 10.0394 6.45818C10.0387 6.41478 10.0325 6.37391 10.0209 6.33557C10.0094 6.29651 9.98947 6.26432 9.96126 6.239C9.93377 6.21368 9.89544 6.2003 9.84625 6.19885C9.8014 6.19668 9.76089 6.20392 9.72472 6.22055C9.68855 6.23647 9.65672 6.25889 9.62923 6.28783C9.60174 6.31676 9.5786 6.34968 9.55979 6.38657C9.5417 6.42346 9.52868 6.4618 9.52072 6.50159L9.48709 6.71426C9.48492 6.762 9.49143 6.80758 9.50662 6.85098C9.52253 6.89366 9.54713 6.92874 9.5804 6.95623C9.6144 6.98372 9.65744 6.99819 9.70953 6.99963C9.76306 7.00108 9.80899 6.98987 9.84733 6.966C9.88567 6.94213 9.9175 6.9103 9.94282 6.87051C9.96814 6.83 9.98803 6.78624 10.0025 6.73922C10.0177 6.69147 10.0278 6.6459 10.0329 6.6025ZM10.8228 6.25202L10.5819 7.63657H10.3258L10.608 6.01114H10.8434L10.8228 6.25202ZM11.5042 6.5808L11.5021 6.60358C11.4934 6.67447 11.4764 6.74609 11.4511 6.81843C11.4265 6.89004 11.3928 6.95587 11.3502 7.01591C11.3082 7.07523 11.2565 7.12261 11.195 7.15805C11.1335 7.1935 11.0612 7.21014 10.978 7.20797C10.9049 7.20652 10.8434 7.18916 10.7935 7.15588C10.7436 7.12188 10.7038 7.07776 10.6742 7.02351C10.6445 6.96925 10.6235 6.90993 10.6112 6.84555C10.5996 6.78045 10.5953 6.71607 10.5982 6.65241L10.609 6.56561C10.6206 6.49688 10.6402 6.42816 10.6676 6.35944C10.6959 6.29072 10.732 6.22815 10.7762 6.17173C10.8203 6.11458 10.8727 6.06937 10.9335 6.03609C10.9942 6.00282 11.0641 5.98726 11.1429 5.98943C11.2232 5.9916 11.2887 6.01077 11.3393 6.04694C11.3899 6.08311 11.4283 6.13013 11.4543 6.188C11.4811 6.24587 11.4977 6.30917 11.5042 6.37789C11.5115 6.44661 11.5115 6.51425 11.5042 6.5808ZM11.246 6.6025L11.2492 6.57863C11.2529 6.54173 11.2539 6.50159 11.2525 6.45818C11.2518 6.41478 11.2456 6.37391 11.234 6.33557C11.2225 6.29651 11.2026 6.26432 11.1744 6.239C11.1469 6.21368 11.1085 6.2003 11.0594 6.19885C11.0145 6.19668 10.974 6.20392 10.9378 6.22055C10.9017 6.23647 10.8698 6.25889 10.8423 6.28783C10.8149 6.31676 10.7917 6.34968 10.7729 6.38657C10.7548 6.42346 10.7418 6.4618 10.7338 6.50159L10.7002 6.71426C10.698 6.762 10.7045 6.80758 10.7197 6.85098C10.7356 6.89366 10.7602 6.92874 10.7935 6.95623C10.8275 6.98372 10.8706 6.99819 10.9226 6.99963C10.9762 7.00108 11.0221 6.98987 11.0604 6.966C11.0988 6.94213 11.1306 6.9103 11.1559 6.87051C11.1812 6.83 11.2011 6.78624 11.2156 6.73922C11.2308 6.69147 11.2409 6.6459 11.246 6.6025ZM11.6702 6.61769L11.6735 6.59273C11.6822 6.51171 11.7021 6.43467 11.7332 6.36161C11.7643 6.28855 11.8055 6.22381 11.8569 6.16739C11.909 6.11024 11.9701 6.06575 12.0403 6.03392C12.1111 6.00209 12.19 5.98726 12.2768 5.98943C12.3607 5.99088 12.4327 6.00824 12.4927 6.04152C12.5535 6.07479 12.6027 6.11928 12.6403 6.17498C12.6786 6.22996 12.7054 6.29289 12.7206 6.36378C12.7358 6.43395 12.7398 6.50737 12.7325 6.58405L12.7304 6.60901C12.721 6.69003 12.7003 6.76671 12.6685 6.83904C12.6374 6.91138 12.5958 6.97576 12.5437 7.03219C12.4924 7.08789 12.4312 7.13165 12.3604 7.16348C12.2902 7.19458 12.2121 7.20905 12.126 7.20688C12.0428 7.20544 11.9708 7.18844 11.91 7.15588C11.85 7.12261 11.8008 7.07848 11.7625 7.02351C11.7249 6.96853 11.6985 6.90632 11.6833 6.83687C11.6681 6.76671 11.6637 6.69364 11.6702 6.61769ZM11.9274 6.59273L11.9252 6.61769C11.9216 6.65748 11.9213 6.69943 11.9242 6.74356C11.927 6.78768 11.9357 6.82892 11.9502 6.86726C11.9647 6.90559 11.9871 6.93706 12.0175 6.96166C12.0479 6.98625 12.0884 6.99927 12.139 7.00072C12.1925 7.00217 12.2392 6.99131 12.279 6.96817C12.3188 6.94502 12.352 6.91391 12.3788 6.87485C12.4056 6.83579 12.4269 6.79311 12.4428 6.74681C12.4587 6.69979 12.4692 6.65386 12.4743 6.60901L12.4765 6.58405C12.4808 6.54499 12.4815 6.5034 12.4786 6.45927C12.4757 6.41442 12.4671 6.37246 12.4526 6.3334C12.4381 6.29362 12.4157 6.26142 12.3853 6.23683C12.3549 6.21151 12.3144 6.19813 12.2638 6.19668C12.2095 6.19524 12.1625 6.20645 12.1227 6.23032C12.0829 6.25347 12.0497 6.28493 12.0229 6.32472C11.9961 6.36451 11.9748 6.40791 11.9589 6.45493C11.9437 6.50195 11.9332 6.54788 11.9274 6.59273ZM13.2599 6.24768L13.0971 7.18518H12.8421L13.0461 6.01114H13.2881L13.2599 6.24768ZM13.6418 6.00137L13.6136 6.24551C13.597 6.24262 13.58 6.24009 13.5626 6.23791C13.546 6.23574 13.5293 6.23466 13.5127 6.23466C13.4686 6.23394 13.4288 6.24009 13.3933 6.25311C13.3579 6.26613 13.3268 6.28493 13.3 6.30953C13.2733 6.3334 13.2508 6.36234 13.2327 6.39634C13.2147 6.42961 13.2006 6.46686 13.1904 6.5081L13.1297 6.51244C13.1369 6.45529 13.1492 6.39597 13.1666 6.33449C13.1846 6.273 13.2096 6.21585 13.2414 6.16305C13.2733 6.10952 13.3138 6.06647 13.363 6.03392C13.4121 6.00065 13.4718 5.98473 13.542 5.98618C13.5586 5.98618 13.5753 5.98763 13.5919 5.99052C13.6085 5.99341 13.6252 5.99703 13.6418 6.00137ZM14.384 6.01114L14.3504 6.20211H13.708L13.7406 6.01114H14.384ZM13.976 5.72359H14.231L14.0368 6.86292C14.0339 6.88823 14.0339 6.9103 14.0368 6.9291C14.0404 6.94791 14.0487 6.96274 14.0617 6.97359C14.0755 6.98372 14.0965 6.98914 14.1247 6.98987C14.1399 6.99059 14.1551 6.98987 14.1702 6.9877C14.1862 6.98553 14.2021 6.98336 14.218 6.98119L14.1995 7.18301C14.1735 7.19097 14.1467 7.19675 14.1192 7.20037C14.0925 7.20399 14.0654 7.20544 14.0379 7.20471C13.9728 7.20399 13.9203 7.18916 13.8805 7.16022C13.8407 7.13057 13.8129 7.09114 13.797 7.04195C13.7811 6.99276 13.776 6.93778 13.7818 6.87702L13.976 5.72359ZM15.0774 6.86074C15.0832 6.82096 15.0745 6.79022 15.0513 6.76851C15.0282 6.74609 14.9992 6.72909 14.9645 6.71752C14.9298 6.70594 14.898 6.69654 14.869 6.6893C14.8249 6.67845 14.7808 6.66471 14.7367 6.64807C14.6933 6.63071 14.6535 6.60901 14.6173 6.58297C14.5811 6.55693 14.5526 6.5251 14.5316 6.48748C14.5106 6.44914 14.5012 6.40357 14.5034 6.35076C14.5063 6.29 14.5222 6.23683 14.5511 6.19126C14.58 6.14568 14.6173 6.10771 14.6629 6.07732C14.7092 6.04694 14.7598 6.02452 14.8148 6.01005C14.8698 5.99558 14.9244 5.98871 14.9786 5.98943C15.0546 5.99088 15.1244 6.00571 15.188 6.03392C15.2524 6.06213 15.3038 6.10373 15.3421 6.1587C15.3812 6.21368 15.4004 6.28168 15.3996 6.3627L15.1457 6.36161C15.1472 6.32544 15.1407 6.29434 15.1262 6.2683C15.1124 6.24153 15.0922 6.22092 15.0654 6.20645C15.0387 6.19198 15.0065 6.18438 14.9689 6.18366C14.9363 6.18294 14.9041 6.18836 14.8723 6.19994C14.8412 6.21151 14.8144 6.22887 14.792 6.25202C14.7696 6.27517 14.7558 6.30447 14.7508 6.33991C14.7464 6.3674 14.7504 6.39019 14.7627 6.40827C14.775 6.42563 14.792 6.43974 14.8137 6.45059C14.8354 6.46144 14.8582 6.47048 14.8821 6.47772C14.9066 6.48423 14.9287 6.48965 14.9482 6.49399C15.0097 6.51063 15.0701 6.53197 15.1294 6.55801C15.1888 6.58333 15.2372 6.61914 15.2748 6.66543C15.3125 6.71101 15.3295 6.77105 15.3258 6.84555C15.3237 6.90921 15.307 6.96419 15.2759 7.01048C15.2448 7.05606 15.205 7.09367 15.1566 7.12333C15.1081 7.15227 15.0549 7.17361 14.9971 7.18735C14.9399 7.2011 14.8835 7.20761 14.8278 7.20688C14.7511 7.20544 14.6788 7.18952 14.6108 7.15914C14.5435 7.12876 14.4893 7.08499 14.448 7.02785C14.4075 6.96998 14.3873 6.89945 14.3873 6.81626L14.6336 6.81734C14.6336 6.8593 14.6419 6.89474 14.6585 6.92368C14.6759 6.95261 14.6998 6.97468 14.7301 6.98987C14.7612 7.00434 14.7974 7.01193 14.8387 7.01265C14.8726 7.01265 14.9066 7.00795 14.9406 6.99855C14.9754 6.98842 15.005 6.97215 15.0296 6.94972C15.0549 6.9273 15.0709 6.89764 15.0774 6.86074ZM16.9361 6.77068C16.9426 6.728 16.9386 6.6922 16.9242 6.66326C16.9097 6.6336 16.8887 6.60901 16.8612 6.58948C16.8345 6.56922 16.8041 6.55222 16.7701 6.53848C16.7361 6.52474 16.7024 6.51171 16.6692 6.49942C16.6142 6.47989 16.5599 6.45674 16.5064 6.42997C16.4529 6.40321 16.4044 6.37138 16.361 6.33449C16.3183 6.29759 16.285 6.25419 16.2612 6.20428C16.2373 6.15364 16.2275 6.09469 16.2319 6.02741C16.2377 5.95146 16.259 5.88563 16.2959 5.82993C16.3335 5.77351 16.3813 5.72685 16.4391 5.68995C16.497 5.65306 16.5603 5.62594 16.629 5.60857C16.6977 5.59049 16.7661 5.58217 16.8341 5.58362C16.9303 5.58579 17.016 5.6064 17.0913 5.64547C17.1665 5.68453 17.2254 5.73987 17.2681 5.81148C17.3108 5.8831 17.3303 5.96809 17.3267 6.06647H17.062C17.0663 6.0115 17.0594 5.96448 17.0413 5.92541C17.024 5.88563 16.9965 5.85489 16.9589 5.83318C16.9213 5.81076 16.8746 5.79919 16.8189 5.79846C16.769 5.79702 16.7209 5.80461 16.6746 5.82125C16.6283 5.83716 16.5889 5.86212 16.5563 5.89612C16.5245 5.93012 16.5046 5.97388 16.4966 6.02741C16.4908 6.06503 16.4959 6.09758 16.5118 6.12507C16.5285 6.15256 16.5513 6.1757 16.5802 6.19451C16.6091 6.21332 16.6402 6.22923 16.6735 6.24226C16.7068 6.25528 16.7379 6.26685 16.7668 6.27698C16.8254 6.29723 16.8815 6.32147 16.935 6.34968C16.9893 6.37717 17.0374 6.41008 17.0793 6.44842C17.1213 6.48676 17.1535 6.53233 17.1759 6.58514C17.1983 6.63722 17.207 6.69835 17.2019 6.76851C17.1954 6.84592 17.1737 6.91283 17.1368 6.96925C17.0999 7.02495 17.0529 7.07052 16.9958 7.10597C16.9386 7.14142 16.8757 7.16746 16.807 7.1841C16.7382 7.20073 16.6688 7.20833 16.5986 7.20688C16.5241 7.20616 16.4536 7.19458 16.387 7.17216C16.3212 7.14974 16.2633 7.11718 16.2134 7.0745C16.1635 7.0311 16.1248 6.97866 16.0973 6.91717C16.0706 6.85568 16.0586 6.78551 16.0615 6.70667L16.3263 6.70775C16.3234 6.75405 16.3277 6.79528 16.3393 6.83145C16.3516 6.86689 16.3704 6.89655 16.3957 6.92042C16.421 6.9443 16.4518 6.96238 16.488 6.97468C16.5248 6.98697 16.5661 6.99312 16.6117 6.99312C16.6608 6.99457 16.7086 6.9877 16.7549 6.97251C16.8019 6.95732 16.8417 6.93344 16.8742 6.90089C16.9075 6.86762 16.9281 6.82421 16.9361 6.77068ZM17.8671 7.20688C17.7868 7.20544 17.7155 7.18988 17.6533 7.16022C17.5918 7.12984 17.5408 7.08897 17.5003 7.03761C17.4598 6.98553 17.4305 6.92585 17.4124 6.85857C17.3944 6.79058 17.3882 6.71824 17.394 6.64156L17.3983 6.59707C17.4063 6.51822 17.4255 6.44227 17.4558 6.36921C17.4862 6.29542 17.5267 6.22996 17.5774 6.17281C17.6287 6.11494 17.6891 6.06937 17.7586 6.03609C17.828 6.00282 17.9054 5.98726 17.9908 5.98943C18.0725 5.99088 18.1416 6.00788 18.198 6.04043C18.2544 6.07298 18.2993 6.11639 18.3326 6.17064C18.3658 6.22417 18.3879 6.28493 18.3988 6.35293C18.4103 6.42093 18.4121 6.49146 18.4042 6.56452L18.389 6.67628H17.5079L17.5383 6.48857L18.16 6.48965L18.1644 6.46686C18.1709 6.42129 18.1684 6.37825 18.1568 6.33774C18.1459 6.29723 18.1257 6.26396 18.096 6.23791C18.0664 6.21187 18.0266 6.19813 17.9767 6.19668C17.9224 6.19524 17.8758 6.20645 17.8367 6.23032C17.7984 6.25419 17.7665 6.28638 17.7412 6.32689C17.7159 6.3674 17.696 6.41153 17.6815 6.45927C17.6678 6.50629 17.658 6.55222 17.6522 6.59707L17.6479 6.64048C17.6436 6.68316 17.6446 6.72547 17.6512 6.76743C17.6577 6.80938 17.6703 6.84772 17.6891 6.88245C17.7079 6.91645 17.734 6.9443 17.7673 6.966C17.8005 6.98697 17.8418 6.99819 17.891 6.99963C17.9524 7.00108 18.0081 6.98842 18.0581 6.96166C18.1087 6.93417 18.1546 6.89872 18.1959 6.85532L18.3217 6.98878C18.2884 7.0387 18.2472 7.07993 18.198 7.11248C18.1496 7.14503 18.0968 7.16927 18.0396 7.18518C17.9832 7.20037 17.9257 7.20761 17.8671 7.20688ZM18.9977 6.99963C19.0404 7.00036 19.0795 6.9924 19.1149 6.97576C19.1504 6.95912 19.1797 6.93525 19.2028 6.90415C19.2267 6.87304 19.2433 6.83724 19.2527 6.79673L19.4947 6.79564C19.4853 6.87955 19.4556 6.95261 19.4057 7.01482C19.3565 7.07704 19.295 7.12514 19.2212 7.15914C19.1482 7.19241 19.0708 7.20833 18.989 7.20688C18.9059 7.20544 18.8346 7.18844 18.7753 7.15588C18.7167 7.12333 18.6693 7.07957 18.6331 7.02459C18.597 6.96961 18.5717 6.9074 18.5572 6.83796C18.5434 6.76779 18.5402 6.69509 18.5474 6.61986L18.5518 6.5808C18.5604 6.5005 18.5796 6.42455 18.6093 6.35293C18.6396 6.28132 18.6798 6.21802 18.7297 6.16305C18.7803 6.10734 18.84 6.06394 18.9087 6.03284C18.9775 6.00173 19.0549 5.98726 19.141 5.98943C19.2278 5.99088 19.3026 6.01077 19.3656 6.04911C19.4285 6.08745 19.4766 6.1399 19.5099 6.20645C19.5432 6.27228 19.5594 6.34751 19.5587 6.43214L19.3189 6.43106C19.3189 6.39055 19.312 6.35293 19.2983 6.31821C19.2853 6.28276 19.2643 6.25419 19.2354 6.23249C19.2071 6.21006 19.1702 6.19813 19.1247 6.19668C19.0711 6.19524 19.0252 6.20572 18.9869 6.22815C18.9493 6.25057 18.9178 6.28096 18.8925 6.3193C18.8679 6.35763 18.8483 6.39995 18.8339 6.44625C18.8201 6.49182 18.8107 6.53703 18.8057 6.58188L18.8013 6.61986C18.7977 6.6582 18.7963 6.69943 18.797 6.74356C18.7984 6.78696 18.8053 6.82783 18.8176 6.86617C18.8299 6.90451 18.8502 6.93598 18.8784 6.96057C18.9073 6.98517 18.9471 6.99819 18.9977 6.99963ZM20.3562 6.89547L20.5092 6.01114H20.7653L20.5613 7.18518H20.3204L20.3562 6.89547ZM20.4278 6.66435L20.5125 6.66109C20.5038 6.73198 20.4879 6.8007 20.4647 6.86726C20.4416 6.93308 20.4101 6.99204 20.3703 7.04412C20.3305 7.0962 20.281 7.13708 20.2217 7.16673C20.1624 7.19639 20.0926 7.21014 20.0123 7.20797C19.9479 7.2058 19.8936 7.19314 19.8495 7.16999C19.8061 7.14612 19.7717 7.11393 19.7464 7.07342C19.7211 7.03291 19.7041 6.98661 19.6954 6.93453C19.6875 6.88245 19.6864 6.82747 19.6922 6.7696L19.8191 6.01114H20.0741L19.9461 6.77285C19.9439 6.80107 19.9439 6.82819 19.9461 6.85423C19.9482 6.88028 19.9544 6.90379 19.9645 6.92476C19.9746 6.94574 19.9895 6.96274 20.009 6.97576C20.0293 6.98806 20.0557 6.99493 20.0882 6.99638C20.1577 6.99855 20.2155 6.98517 20.2618 6.95623C20.3088 6.92657 20.3457 6.88606 20.3725 6.8347C20.4 6.78334 20.4184 6.72656 20.4278 6.66435ZM21.2395 6.24768L21.0767 7.18518H20.8217L21.0257 6.01114H21.2677L21.2395 6.24768ZM21.6214 6.00137L21.5932 6.24551C21.5766 6.24262 21.5596 6.24009 21.5422 6.23791C21.5256 6.23574 21.5089 6.23466 21.4923 6.23466C21.4482 6.23394 21.4084 6.24009 21.3729 6.25311C21.3375 6.26613 21.3064 6.28493 21.2796 6.30953C21.2529 6.3334 21.2304 6.36234 21.2123 6.39634C21.1943 6.42961 21.1802 6.46686 21.17 6.5081L21.1093 6.51244C21.1165 6.45529 21.1288 6.39597 21.1462 6.33449C21.1642 6.273 21.1892 6.21585 21.221 6.16305C21.2529 6.10952 21.2934 6.06647 21.3426 6.03392C21.3917 6.00065 21.4514 5.98473 21.5216 5.98618C21.5382 5.98618 21.5549 5.98763 21.5715 5.99052C21.5881 5.99341 21.6048 5.99703 21.6214 6.00137ZM22.088 7.20688C22.0077 7.20544 21.9365 7.18988 21.8742 7.16022C21.8128 7.12984 21.7618 7.08897 21.7212 7.03761C21.6807 6.98553 21.6514 6.92585 21.6334 6.85857C21.6153 6.79058 21.6091 6.71824 21.6149 6.64156L21.6192 6.59707C21.6272 6.51822 21.6464 6.44227 21.6768 6.36921C21.7071 6.29542 21.7476 6.22996 21.7983 6.17281C21.8496 6.11494 21.91 6.06937 21.9795 6.03609C22.0489 6.00282 22.1263 5.98726 22.2117 5.98943C22.2934 5.99088 22.3625 6.00788 22.4189 6.04043C22.4754 6.07298 22.5202 6.11639 22.5535 6.17064C22.5868 6.22417 22.6088 6.28493 22.6197 6.35293C22.6313 6.42093 22.6331 6.49146 22.6251 6.56452L22.6099 6.67628H21.7288L21.7592 6.48857L22.381 6.48965L22.3853 6.46686C22.3918 6.42129 22.3893 6.37825 22.3777 6.33774C22.3669 6.29723 22.3466 6.26396 22.3169 6.23791C22.2873 6.21187 22.2475 6.19813 22.1976 6.19668C22.1433 6.19524 22.0967 6.20645 22.0576 6.23032C22.0193 6.25419 21.9875 6.28638 21.9621 6.32689C21.9368 6.3674 21.9169 6.41153 21.9025 6.45927C21.8887 6.50629 21.8789 6.55222 21.8732 6.59707L21.8688 6.64048C21.8645 6.68316 21.8656 6.72547 21.8721 6.76743C21.8786 6.80938 21.8912 6.84772 21.91 6.88245C21.9289 6.91645 21.9549 6.9443 21.9882 6.966C22.0214 6.98697 22.0627 6.99819 22.1119 6.99963C22.1734 7.00108 22.2291 6.98842 22.279 6.96166C22.3296 6.93417 22.3755 6.89872 22.4168 6.85532L22.5426 6.98878C22.5094 7.0387 22.4681 7.07993 22.4189 7.11248C22.3705 7.14503 22.3177 7.16927 22.2605 7.18518C22.2041 7.20037 22.1466 7.20761 22.088 7.20688ZM24.141 5.60532L23.8675 7.18518H23.6028L23.8773 5.60532H24.141ZM24.6216 5.60532L24.5837 5.82233H23.363L23.4009 5.60532H24.6216ZM24.9461 7.20688C24.8658 7.20544 24.7945 7.18988 24.7323 7.16022C24.6708 7.12984 24.6198 7.08897 24.5793 7.03761C24.5388 6.98553 24.5095 6.92585 24.4914 6.85857C24.4733 6.79058 24.4672 6.71824 24.473 6.64156L24.4773 6.59707C24.4853 6.51822 24.5044 6.44227 24.5348 6.36921C24.5652 6.29542 24.6057 6.22996 24.6564 6.17281C24.7077 6.11494 24.7681 6.06937 24.8376 6.03609C24.907 6.00282 24.9844 5.98726 25.0698 5.98943C25.1515 5.99088 25.2206 6.00788 25.277 6.04043C25.3334 6.07298 25.3783 6.11639 25.4116 6.17064C25.4448 6.22417 25.4669 6.28493 25.4778 6.35293C25.4893 6.42093 25.4911 6.49146 25.4832 6.56452L25.468 6.67628H24.5869L24.6173 6.48857L25.239 6.48965L25.2434 6.46686C25.2499 6.42129 25.2474 6.37825 25.2358 6.33774C25.2249 6.29723 25.2047 6.26396 25.175 6.23791C25.1454 6.21187 25.1056 6.19813 25.0557 6.19668C25.0014 6.19524 24.9548 6.20645 24.9157 6.23032C24.8774 6.25419 24.8455 6.28638 24.8202 6.32689C24.7949 6.3674 24.775 6.41153 24.7605 6.45927C24.7468 6.50629 24.737 6.55222 24.7312 6.59707L24.7269 6.64048C24.7225 6.68316 24.7236 6.72547 24.7301 6.76743C24.7367 6.80938 24.7493 6.84772 24.7681 6.88245C24.7869 6.91645 24.813 6.9443 24.8462 6.966C24.8795 6.98697 24.9208 6.99819 24.9699 6.99963C25.0314 7.00108 25.0871 6.98842 25.137 6.96166C25.1877 6.93417 25.2336 6.89872 25.2748 6.85532L25.4007 6.98878C25.3674 7.0387 25.3262 7.07993 25.277 7.11248C25.2286 7.14503 25.1757 7.16927 25.1186 7.18518C25.0622 7.20037 25.0047 7.20761 24.9461 7.20688ZM26.0767 6.99963C26.1194 7.00036 26.1585 6.9924 26.1939 6.97576C26.2293 6.95912 26.2586 6.93525 26.2818 6.90415C26.3057 6.87304 26.3223 6.83724 26.3317 6.79673L26.5737 6.79564C26.5643 6.87955 26.5346 6.95261 26.4847 7.01482C26.4355 7.07704 26.374 7.12514 26.3002 7.15914C26.2272 7.19241 26.1498 7.20833 26.068 7.20688C25.9848 7.20544 25.9136 7.18844 25.8543 7.15588C25.7957 7.12333 25.7483 7.07957 25.7121 7.02459C25.676 6.96961 25.6506 6.9074 25.6362 6.83796C25.6224 6.76779 25.6192 6.69509 25.6264 6.61986L25.6308 6.5808C25.6394 6.5005 25.6586 6.42455 25.6883 6.35293C25.7186 6.28132 25.7588 6.21802 25.8087 6.16305C25.8593 6.10734 25.919 6.06394 25.9877 6.03284C26.0565 6.00173 26.1339 5.98726 26.2199 5.98943C26.3067 5.99088 26.3816 6.01077 26.4446 6.04911C26.5075 6.08745 26.5556 6.1399 26.5889 6.20645C26.6221 6.27228 26.6384 6.34751 26.6377 6.43214L26.3979 6.43106C26.3979 6.39055 26.391 6.35293 26.3773 6.31821C26.3643 6.28276 26.3433 6.25419 26.3143 6.23249C26.2861 6.21006 26.2492 6.19813 26.2037 6.19668C26.1501 6.19524 26.1042 6.20572 26.0659 6.22815C26.0282 6.25057 25.9968 6.28096 25.9715 6.3193C25.9469 6.35763 25.9273 6.39995 25.9129 6.44625C25.8991 6.49182 25.8897 6.53703 25.8847 6.58188L25.8803 6.61986C25.8767 6.6582 25.8753 6.69943 25.876 6.74356C25.8774 6.78696 25.8843 6.82783 25.8966 6.86617C25.9089 6.90451 25.9291 6.93598 25.9574 6.96057C25.9863 6.98517 26.0261 6.99819 26.0767 6.99963ZM27.241 5.51851L26.9513 7.18518H26.6963L26.986 5.51851H27.241ZM27.0196 6.55476H26.9393C26.9487 6.48676 26.9657 6.41912 26.9903 6.35185C27.0157 6.28385 27.0497 6.22236 27.0923 6.16739C27.135 6.11169 27.1864 6.06756 27.2464 6.03501C27.3065 6.00245 27.3759 5.98726 27.4548 5.98943C27.5191 5.99088 27.5727 6.00354 27.6153 6.02741C27.6587 6.05128 27.6927 6.08384 27.7173 6.12507C27.7419 6.16558 27.7582 6.21224 27.7662 6.26504C27.7741 6.31713 27.7748 6.37246 27.7683 6.43106L27.6425 7.18518H27.3853L27.5133 6.4278C27.5177 6.38512 27.5162 6.34678 27.509 6.31278C27.5018 6.27879 27.4859 6.25166 27.4613 6.2314C27.4367 6.21043 27.4009 6.19958 27.3538 6.19885C27.3032 6.19741 27.2584 6.20681 27.2193 6.22706C27.181 6.24732 27.148 6.27481 27.1206 6.30953C27.0938 6.34425 27.0721 6.38295 27.0554 6.42563C27.0388 6.46831 27.0269 6.51135 27.0196 6.55476ZM28.3076 6.27698L28.1503 7.18518H27.8942L28.0982 6.01114H28.338L28.3076 6.27698ZM28.2176 6.55476L28.1394 6.55584C28.1481 6.48567 28.1651 6.41659 28.1904 6.34859C28.2165 6.27987 28.2508 6.21838 28.2935 6.16413C28.3362 6.10915 28.3879 6.06575 28.4487 6.03392C28.5102 6.00209 28.5811 5.98726 28.6614 5.98943C28.725 5.99088 28.7778 6.00354 28.8198 6.02741C28.8624 6.05128 28.8954 6.08347 28.9185 6.12398C28.9424 6.16449 28.9579 6.21079 28.9652 6.26287C28.9724 6.31495 28.9728 6.36957 28.9663 6.42672L28.8404 7.18518H28.5832L28.7113 6.42346C28.7156 6.38151 28.7142 6.34389 28.7069 6.31061C28.6997 6.27662 28.6838 6.24985 28.6592 6.23032C28.6346 6.21006 28.5991 6.19958 28.5528 6.19885C28.5022 6.19741 28.4577 6.20681 28.4194 6.22706C28.381 6.24732 28.3481 6.27517 28.3206 6.31061C28.2932 6.34534 28.2707 6.38404 28.2534 6.42672C28.2367 6.4694 28.2248 6.51208 28.2176 6.55476ZM29.1507 6.61769L29.154 6.59273C29.1627 6.51171 29.1825 6.43467 29.2137 6.36161C29.2448 6.28855 29.286 6.22381 29.3373 6.16739C29.3894 6.11024 29.4506 6.06575 29.5207 6.03392C29.5916 6.00209 29.6705 5.98726 29.7573 5.98943C29.8412 5.99088 29.9132 6.00824 29.9732 6.04152C30.034 6.07479 30.0832 6.11928 30.1208 6.17498C30.1591 6.22996 30.1859 6.29289 30.2011 6.36378C30.2163 6.43395 30.2202 6.50737 30.213 6.58405L30.2108 6.60901C30.2014 6.69003 30.1808 6.76671 30.149 6.83904C30.1179 6.91138 30.0763 6.97576 30.0242 7.03219C29.9728 7.08789 29.9117 7.13165 29.8408 7.16348C29.7707 7.19458 29.6925 7.20905 29.6064 7.20688C29.5233 7.20544 29.4513 7.18844 29.3905 7.15588C29.3305 7.12261 29.2813 7.07848 29.2429 7.02351C29.2053 6.96853 29.1789 6.90632 29.1637 6.83687C29.1485 6.76671 29.1442 6.69364 29.1507 6.61769ZM29.4079 6.59273L29.4057 6.61769C29.4021 6.65748 29.4017 6.69943 29.4046 6.74356C29.4075 6.78768 29.4162 6.82892 29.4307 6.86726C29.4451 6.90559 29.4676 6.93706 29.4979 6.96166C29.5283 6.98625 29.5688 6.99927 29.6195 7.00072C29.673 7.00217 29.7197 6.99131 29.7594 6.96817C29.7992 6.94502 29.8325 6.91391 29.8593 6.87485C29.886 6.83579 29.9074 6.79311 29.9233 6.74681C29.9392 6.69979 29.9497 6.65386 29.9548 6.60901L29.9569 6.58405C29.9613 6.54499 29.962 6.5034 29.9591 6.45927C29.9562 6.41442 29.9475 6.37246 29.9331 6.3334C29.9186 6.29362 29.8962 6.26142 29.8658 6.23683C29.8354 6.21151 29.7949 6.19813 29.7442 6.19668C29.69 6.19524 29.643 6.20645 29.6032 6.23032C29.5634 6.25347 29.5301 6.28493 29.5034 6.32472C29.4766 6.36451 29.4553 6.40791 29.4393 6.45493C29.4242 6.50195 29.4137 6.54788 29.4079 6.59273ZM30.8836 5.51851L30.5939 7.18518H30.3389L30.6275 5.51851H30.8836ZM30.9237 6.61769L30.927 6.59273C30.9357 6.51171 30.9555 6.43467 30.9867 6.36161C31.0178 6.28855 31.059 6.22381 31.1104 6.16739C31.1624 6.11024 31.2236 6.06575 31.2937 6.03392C31.3646 6.00209 31.4435 5.98726 31.5303 5.98943C31.6142 5.99088 31.6862 6.00824 31.7462 6.04152C31.807 6.07479 31.8562 6.11928 31.8938 6.17498C31.9321 6.22996 31.9589 6.29289 31.9741 6.36378C31.9893 6.43395 31.9932 6.50737 31.986 6.58405L31.9838 6.60901C31.9744 6.69003 31.9538 6.76671 31.922 6.83904C31.8909 6.91138 31.8493 6.97576 31.7972 7.03219C31.7458 7.08789 31.6847 7.13165 31.6138 7.16348C31.5437 7.19458 31.4655 7.20905 31.3795 7.20688C31.2963 7.20544 31.2243 7.18844 31.1635 7.15588C31.1035 7.12261 31.0543 7.07848 31.016 7.02351C30.9783 6.96853 30.9519 6.90632 30.9367 6.83687C30.9216 6.76671 30.9172 6.69364 30.9237 6.61769ZM31.1809 6.59273L31.1787 6.61769C31.1751 6.65748 31.1747 6.69943 31.1776 6.74356C31.1805 6.78768 31.1892 6.82892 31.2037 6.86726C31.2181 6.90559 31.2406 6.93706 31.2709 6.96166C31.3013 6.98625 31.3418 6.99927 31.3925 7.00072C31.446 7.00217 31.4927 6.99131 31.5324 6.96817C31.5722 6.94502 31.6055 6.91391 31.6323 6.87485C31.659 6.83579 31.6804 6.79311 31.6963 6.74681C31.7122 6.69979 31.7227 6.65386 31.7278 6.60901L31.7299 6.58405C31.7343 6.54499 31.735 6.5034 31.7321 6.45927C31.7292 6.41442 31.7205 6.37246 31.7061 6.3334C31.6916 6.29362 31.6692 6.26142 31.6388 6.23683C31.6084 6.21151 31.5679 6.19813 31.5173 6.19668C31.463 6.19524 31.416 6.20645 31.3762 6.23032C31.3364 6.25347 31.3031 6.28493 31.2764 6.32472C31.2496 6.36451 31.2283 6.40791 31.2123 6.45493C31.1972 6.50195 31.1867 6.54788 31.1809 6.59273ZM33.0255 6.01114H33.2599L33.0656 7.15154C33.0512 7.25499 33.0172 7.34432 32.9637 7.41956C32.9108 7.49479 32.8425 7.5523 32.7586 7.59208C32.6747 7.63259 32.5806 7.6514 32.4765 7.64851C32.4244 7.64778 32.373 7.63946 32.3224 7.62355C32.2717 7.60836 32.2247 7.58629 32.1813 7.55736C32.1379 7.52842 32.1007 7.49262 32.0696 7.44994L32.203 7.29803C32.2363 7.34288 32.2754 7.37832 32.3202 7.40436C32.3651 7.43041 32.4153 7.44415 32.471 7.4456C32.5318 7.44704 32.5857 7.43583 32.6327 7.41196C32.6797 7.38881 32.7181 7.35554 32.7477 7.31213C32.7781 7.26873 32.798 7.21737 32.8074 7.15805L32.9593 6.26396L33.0255 6.01114ZM32.1499 6.61986L32.1531 6.59599C32.1618 6.52365 32.1791 6.45131 32.2052 6.37897C32.2312 6.30591 32.266 6.23972 32.3094 6.18041C32.3535 6.12037 32.407 6.07298 32.4699 6.03826C32.5336 6.00354 32.6077 5.9869 32.6924 5.98835C32.7691 5.99052 32.832 6.00933 32.8812 6.04477C32.9311 6.08022 32.9694 6.12615 32.9962 6.18258C33.0237 6.239 33.0421 6.30049 33.0515 6.36704C33.0609 6.43359 33.0638 6.49942 33.0602 6.56452L33.0515 6.63831C33.04 6.70558 33.0204 6.77322 32.9929 6.84121C32.9655 6.90921 32.9297 6.97142 32.8855 7.02785C32.8421 7.08355 32.79 7.12803 32.7293 7.16131C32.6692 7.19458 32.6002 7.21014 32.522 7.20797C32.4446 7.2058 32.3802 7.18663 32.3289 7.15046C32.2775 7.11357 32.2377 7.06618 32.2095 7.00831C32.1813 6.95044 32.1625 6.88751 32.1531 6.81951C32.1444 6.75151 32.1433 6.68496 32.1499 6.61986ZM32.4092 6.59599L32.407 6.61877C32.4027 6.65711 32.4012 6.69762 32.4027 6.7403C32.4041 6.78298 32.411 6.82349 32.4233 6.86183C32.4356 6.90017 32.4558 6.932 32.4841 6.95732C32.5123 6.98191 32.5506 6.99493 32.5991 6.99638C32.6577 6.99927 32.7094 6.98697 32.7542 6.95949C32.7998 6.932 32.8374 6.89547 32.8671 6.84989C32.8975 6.80432 32.9188 6.75513 32.9311 6.70232L32.9615 6.50376C32.9644 6.46686 32.9622 6.4307 32.955 6.39525C32.9477 6.35908 32.9351 6.32653 32.917 6.29759C32.8996 6.26866 32.8765 6.24551 32.8475 6.22815C32.8186 6.21006 32.7835 6.20066 32.7423 6.19994C32.688 6.19777 32.641 6.20862 32.6012 6.23249C32.5622 6.25636 32.5293 6.28819 32.5025 6.32798C32.4765 6.36776 32.4558 6.41116 32.4406 6.45818C32.4255 6.5052 32.415 6.55114 32.4092 6.59599ZM33.6711 7.04412L34.1551 6.01114H34.4372L33.7492 7.3653C33.7297 7.40581 33.7073 7.44415 33.682 7.48032C33.6574 7.51649 33.6292 7.54832 33.5973 7.57581C33.5655 7.60329 33.5297 7.62463 33.4899 7.63982C33.4508 7.65574 33.4067 7.6637 33.3575 7.6637C33.3351 7.66297 33.313 7.66044 33.2913 7.6561C33.2689 7.65248 33.2469 7.64814 33.2252 7.64308L33.2436 7.44234C33.2516 7.44307 33.2595 7.44379 33.2675 7.44451C33.2754 7.44596 33.2834 7.44668 33.2913 7.44668C33.3326 7.44813 33.3687 7.4427 33.3999 7.43041C33.431 7.41883 33.4581 7.40075 33.4812 7.37615C33.5051 7.35156 33.5261 7.32154 33.5442 7.28609L33.6711 7.04412ZM33.6733 6.01114L33.7926 6.90306L33.7905 7.16999L33.6125 7.21556L33.4064 6.01114H33.6733Z" fill="white"/>
    <path d="M15.3062 29.0829V29.7573H12.6706V29.1866L13.8846 27.9104C13.9919 27.7876 14.0783 27.6777 14.144 27.5809C14.2098 27.4823 14.2573 27.3933 14.2867 27.3137C14.3178 27.2342 14.3334 27.1624 14.3334 27.0984C14.3334 26.9895 14.317 26.8987 14.2841 26.826C14.253 26.7517 14.2063 26.6955 14.144 26.6574C14.0835 26.6194 14.0083 26.6003 13.9184 26.6003C13.8284 26.6003 13.7497 26.6263 13.6823 26.6782C13.6148 26.73 13.5621 26.8009 13.5241 26.8909C13.4877 26.9808 13.4696 27.082 13.4696 27.1944H12.5928C12.5928 26.9626 12.649 26.7508 12.7614 26.5588C12.8755 26.3669 13.0338 26.2138 13.2361 26.0997C13.4384 25.9838 13.6728 25.9259 13.9391 25.9259C14.2175 25.9259 14.451 25.9691 14.6395 26.0556C14.828 26.142 14.9698 26.2674 15.0649 26.4317C15.1618 26.5943 15.2102 26.7906 15.2102 27.0206C15.2102 27.152 15.1895 27.2783 15.148 27.3993C15.1064 27.5204 15.0468 27.6406 14.969 27.7599C14.8911 27.8775 14.796 27.9986 14.6836 28.1231C14.5729 28.2476 14.4467 28.3799 14.3049 28.52L13.8172 29.0829H15.3062Z" fill="white"/>
    <path d="M19.7032 27.5238V28.2139C19.7032 28.4854 19.6712 28.7214 19.6072 28.922C19.5449 29.1227 19.455 29.2887 19.3374 29.4201C19.2215 29.5515 19.0832 29.6493 18.9224 29.7132C18.7615 29.7772 18.5843 29.8092 18.3906 29.8092C18.2349 29.8092 18.0897 29.7893 17.9548 29.7496C17.8199 29.7081 17.6979 29.6458 17.589 29.5628C17.4818 29.478 17.3892 29.3726 17.3114 29.2463C17.2336 29.1201 17.1739 28.9713 17.1324 28.8001C17.0909 28.6272 17.0702 28.4318 17.0702 28.2139V27.5238C17.0702 27.2506 17.1013 27.0145 17.1636 26.8156C17.2276 26.615 17.3183 26.449 17.4359 26.3176C17.5535 26.1861 17.6928 26.0884 17.8536 26.0244C18.0144 25.9605 18.1917 25.9285 18.3854 25.9285C18.541 25.9285 18.6854 25.9492 18.8186 25.9907C18.9535 26.0305 19.0754 26.0928 19.1844 26.1775C19.2933 26.2605 19.3858 26.3651 19.4619 26.4914C19.5398 26.6176 19.5994 26.7672 19.6409 26.9402C19.6824 27.1114 19.7032 27.3059 19.7032 27.5238ZM18.829 28.3202V27.4123C18.829 27.2912 18.8221 27.1857 18.8082 27.0958C18.7961 27.0059 18.7771 26.9298 18.7511 26.8675C18.7269 26.8053 18.6967 26.7551 18.6604 26.7171C18.624 26.6773 18.5825 26.6488 18.5358 26.6315C18.4909 26.6124 18.4407 26.6029 18.3854 26.6029C18.3162 26.6029 18.2539 26.6176 18.1986 26.647C18.145 26.6747 18.0992 26.7197 18.0611 26.7819C18.0231 26.8442 17.9937 26.9272 17.9729 27.031C17.9539 27.1347 17.9444 27.2618 17.9444 27.4123V28.3202C17.9444 28.443 17.9504 28.5502 17.9625 28.6419C17.9764 28.7318 17.9954 28.8088 18.0196 28.8728C18.0456 28.935 18.0767 28.986 18.113 29.0258C18.1493 29.0639 18.1908 29.0915 18.2375 29.1088C18.2842 29.1261 18.3352 29.1348 18.3906 29.1348C18.458 29.1348 18.5185 29.1209 18.5722 29.0933C18.6258 29.0656 18.6716 29.0206 18.7096 28.9584C18.7494 28.8944 18.7788 28.8105 18.7978 28.7067C18.8186 28.6012 18.829 28.4724 18.829 28.3202Z" fill="white"/>
    <path d="M24.1261 29.0829V29.7573H21.4905V29.1866L22.7045 27.9104C22.8118 27.7876 22.8982 27.6777 22.964 27.5809C23.0297 27.4823 23.0772 27.3933 23.1066 27.3137C23.1378 27.2342 23.1533 27.1624 23.1533 27.0984C23.1533 26.9895 23.1369 26.8987 23.104 26.826C23.0729 26.7517 23.0262 26.6955 22.964 26.6574C22.9034 26.6194 22.8282 26.6003 22.7383 26.6003C22.6483 26.6003 22.5696 26.6263 22.5022 26.6782C22.4348 26.73 22.382 26.8009 22.344 26.8909C22.3076 26.9808 22.2895 27.082 22.2895 27.1944H21.4127C21.4127 26.9626 21.4689 26.7508 21.5813 26.5588C21.6954 26.3669 21.8537 26.2138 22.056 26.0997C22.2584 25.9838 22.4927 25.9259 22.759 25.9259C23.0375 25.9259 23.2709 25.9691 23.4594 26.0556C23.6479 26.142 23.7897 26.2674 23.8849 26.4317C23.9817 26.5943 24.0301 26.7906 24.0301 27.0206C24.0301 27.152 24.0094 27.2783 23.9679 27.3993C23.9264 27.5204 23.8667 27.6406 23.7889 27.7599C23.7111 27.8775 23.6159 27.9986 23.5035 28.1231C23.3928 28.2476 23.2666 28.3799 23.1248 28.52L22.6371 29.0829H24.1261Z" fill="white"/>
    <path d="M26.6968 27.5031H27.1223C27.2312 27.5031 27.3203 27.4841 27.3895 27.446C27.4604 27.4062 27.5131 27.3509 27.5477 27.28C27.5823 27.2074 27.5996 27.1217 27.5996 27.0232C27.5996 26.9471 27.5832 26.877 27.5503 26.8131C27.5192 26.7491 27.4708 26.698 27.405 26.66C27.3393 26.6202 27.2554 26.6003 27.1534 26.6003C27.0842 26.6003 27.0168 26.615 26.9511 26.6444C26.8854 26.6721 26.8309 26.7119 26.7876 26.7638C26.7461 26.8156 26.7254 26.8788 26.7254 26.9531H25.8486C25.8486 26.7387 25.9074 26.5554 26.025 26.4032C26.1443 26.2493 26.3008 26.1317 26.4945 26.0504C26.6899 25.9674 26.9001 25.9259 27.1249 25.9259C27.3929 25.9259 27.6281 25.9674 27.8305 26.0504C28.0328 26.1317 28.1902 26.2527 28.3026 26.4136C28.4167 26.5727 28.4738 26.7698 28.4738 27.005C28.4738 27.1347 28.4435 27.2566 28.383 27.3708C28.3225 27.4849 28.2377 27.5852 28.1288 27.6717C28.0198 27.7582 27.8919 27.8265 27.7449 27.8766C27.5996 27.9251 27.4405 27.9493 27.2676 27.9493H26.6968V27.5031ZM26.6968 28.1542V27.7184H27.2676C27.4561 27.7184 27.6281 27.74 27.7838 27.7832C27.9394 27.8247 28.0734 27.887 28.1859 27.97C28.2983 28.053 28.3847 28.1559 28.4453 28.2787C28.5058 28.3998 28.5361 28.539 28.5361 28.6964C28.5361 28.8728 28.5006 29.0301 28.4297 29.1685C28.3588 29.3068 28.2594 29.4236 28.1314 29.5187C28.0034 29.6138 27.8538 29.6864 27.6826 29.7366C27.5114 29.785 27.3255 29.8092 27.1249 29.8092C26.9675 29.8092 26.8101 29.7885 26.6528 29.747C26.4954 29.7037 26.3518 29.638 26.2221 29.5498C26.0924 29.4599 25.9878 29.3458 25.9082 29.2074C25.8304 29.0673 25.7915 28.9004 25.7915 28.7067H26.6683C26.6683 28.7863 26.6899 28.8589 26.7332 28.9246C26.7781 28.9886 26.8378 29.0396 26.9122 29.0777C26.9865 29.1157 27.0669 29.1348 27.1534 29.1348C27.2606 29.1348 27.3514 29.1149 27.4258 29.0751C27.5019 29.0336 27.5598 28.9783 27.5996 28.9091C27.6394 28.8399 27.6593 28.7629 27.6593 28.6782C27.6593 28.5502 27.6376 28.4482 27.5944 28.3721C27.5529 28.296 27.4915 28.2407 27.4102 28.2061C27.3307 28.1715 27.2347 28.1542 27.1223 28.1542H26.6968Z" fill="white"/>
    <path d="M14.6515 12.2092V12.4089C14.6515 12.6461 14.6219 12.8588 14.5626 13.0469C14.5032 13.235 14.4179 13.3948 14.3065 13.5265C14.1951 13.6581 14.0613 13.7587 13.905 13.8281C13.7502 13.8976 13.5766 13.9323 13.3842 13.9323C13.1975 13.9323 13.0261 13.8976 12.8698 13.8281C12.715 13.7587 12.5805 13.6581 12.4662 13.5265C12.3534 13.3948 12.2658 13.235 12.2036 13.0469C12.1414 12.8588 12.1103 12.6461 12.1103 12.4089V12.2092C12.1103 11.9719 12.1407 11.76 12.2014 11.5733C12.2637 11.3853 12.3512 11.2254 12.464 11.0937C12.5769 10.9606 12.7107 10.8594 12.8655 10.7899C13.0218 10.7205 13.1932 10.6858 13.3798 10.6858C13.5722 10.6858 13.7459 10.7205 13.9007 10.7899C14.0569 10.8594 14.1907 10.9606 14.3021 11.0937C14.415 11.2254 14.5011 11.3853 14.5604 11.5733C14.6211 11.76 14.6515 11.9719 14.6515 12.2092ZM14.237 12.4089V12.2049C14.237 12.0168 14.2175 11.8504 14.1784 11.7057C14.1408 11.561 14.0851 11.4395 14.0113 11.3411C13.9376 11.2428 13.8471 11.1683 13.7401 11.1176C13.6345 11.067 13.5144 11.0417 13.3798 11.0417C13.2496 11.0417 13.1317 11.067 13.0261 11.1176C12.9219 11.1683 12.8322 11.2428 12.757 11.3411C12.6832 11.4395 12.6261 11.561 12.5856 11.7057C12.545 11.8504 12.5248 12.0168 12.5248 12.2049V12.4089C12.5248 12.5984 12.545 12.7662 12.5856 12.9123C12.6261 13.057 12.6839 13.1793 12.7592 13.2791C12.8358 13.3775 12.9263 13.452 13.0304 13.5026C13.136 13.5532 13.254 13.5786 13.3842 13.5786C13.5202 13.5786 13.641 13.5532 13.7466 13.5026C13.8522 13.452 13.9412 13.3775 14.0135 13.2791C14.0873 13.1793 14.143 13.057 14.1806 12.9123C14.2182 12.7662 14.237 12.5984 14.237 12.4089ZM15.6194 12.0421V13.8889H15.2179V11.5408H15.5977L15.6194 12.0421ZM15.5239 12.6259L15.3568 12.6194C15.3583 12.4588 15.3821 12.3105 15.4284 12.1745C15.4747 12.037 15.5398 11.9177 15.6238 11.8164C15.7077 11.7151 15.8075 11.637 15.9232 11.582C16.0404 11.5256 16.1699 11.4974 16.3117 11.4974C16.4274 11.4974 16.5316 11.5133 16.6242 11.5451C16.7168 11.5755 16.7956 11.6247 16.8607 11.6927C16.9273 11.7607 16.9779 11.849 17.0126 11.9575C17.0474 12.0645 17.0647 12.1955 17.0647 12.3503V13.8889H16.6611V12.3459C16.6611 12.2229 16.643 12.1246 16.6068 12.0508C16.5707 11.9755 16.5178 11.9213 16.4484 11.888C16.379 11.8533 16.2936 11.8359 16.1923 11.8359C16.0925 11.8359 16.0014 11.8569 15.9189 11.8989C15.8379 11.9408 15.7677 11.9987 15.7084 12.0725C15.6505 12.1463 15.6049 12.2309 15.5717 12.3264C15.5398 12.4204 15.5239 12.5203 15.5239 12.6259ZM19.76 11.5408V11.849H18.4905V11.5408H19.76ZM18.9202 10.97H19.3217V13.3073C19.3217 13.3869 19.334 13.4469 19.3586 13.4874C19.3832 13.5279 19.415 13.5547 19.454 13.5677C19.4931 13.5807 19.5351 13.5872 19.5799 13.5872C19.6132 13.5872 19.6479 13.5843 19.6841 13.5786C19.7217 13.5713 19.7499 13.5655 19.7687 13.5612L19.7709 13.8889C19.7391 13.899 19.6971 13.9084 19.645 13.9171C19.5944 13.9272 19.5329 13.9323 19.4606 13.9323C19.3622 13.9323 19.2718 13.9128 19.1893 13.8737C19.1068 13.8346 19.041 13.7695 18.9918 13.6784C18.9441 13.5858 18.9202 13.4614 18.9202 13.3051V10.97ZM20.6324 10.5556V13.8889H20.231V10.5556H20.6324ZM20.5369 12.6259L20.3698 12.6194C20.3713 12.4588 20.3952 12.3105 20.4415 12.1745C20.4878 12.037 20.5529 11.9177 20.6368 11.8164C20.7207 11.7151 20.8205 11.637 20.9363 11.582C21.0534 11.5256 21.1829 11.4974 21.3247 11.4974C21.4404 11.4974 21.5446 11.5133 21.6372 11.5451C21.7298 11.5755 21.8086 11.6247 21.8738 11.6927C21.9403 11.7607 21.9909 11.849 22.0257 11.9575C22.0604 12.0645 22.0777 12.1955 22.0777 12.3503V13.8889H21.6741V12.3459C21.6741 12.2229 21.656 12.1246 21.6198 12.0508C21.5837 11.9755 21.5309 11.9213 21.4614 11.888C21.392 11.8533 21.3066 11.8359 21.2053 11.8359C21.1055 11.8359 21.0144 11.8569 20.9319 11.8989C20.8509 11.9408 20.7807 11.9987 20.7214 12.0725C20.6635 12.1463 20.618 12.2309 20.5847 12.3264C20.5529 12.4204 20.5369 12.5203 20.5369 12.6259ZM23.6533 13.9323C23.4898 13.9323 23.3415 13.9048 23.2084 13.8498C23.0767 13.7934 22.9632 13.7146 22.8677 13.6133C22.7736 13.512 22.7013 13.3919 22.6507 13.253C22.6 13.1141 22.5747 12.9622 22.5747 12.7973V12.7062C22.5747 12.5152 22.6029 12.3452 22.6593 12.1962C22.7158 12.0457 22.7924 11.9184 22.8894 11.8142C22.9863 11.7101 23.0963 11.6312 23.2192 11.5777C23.3422 11.5242 23.4695 11.4974 23.6012 11.4974C23.769 11.4974 23.9137 11.5263 24.0352 11.5842C24.1582 11.6421 24.2587 11.7231 24.3369 11.8273C24.415 11.93 24.4729 12.0515 24.5105 12.1918C24.5481 12.3307 24.5669 12.4826 24.5669 12.6476V12.8277H22.8134V12.5H24.1654V12.4696C24.1596 12.3654 24.1379 12.2642 24.1003 12.1658C24.0641 12.0674 24.0063 11.9864 23.9267 11.9227C23.8471 11.8591 23.7386 11.8273 23.6012 11.8273C23.51 11.8273 23.4261 11.8468 23.3494 11.8858C23.2728 11.9235 23.2069 11.9799 23.152 12.0551C23.097 12.1303 23.0543 12.2222 23.0239 12.3307C22.9935 12.4392 22.9784 12.5644 22.9784 12.7062V12.7973C22.9784 12.9087 22.9935 13.0136 23.0239 13.112C23.0558 13.2089 23.1013 13.2943 23.1606 13.3681C23.2214 13.4418 23.2945 13.4997 23.3798 13.5417C23.4666 13.5836 23.565 13.6046 23.675 13.6046C23.8168 13.6046 23.9368 13.5757 24.0352 13.5178C24.1336 13.4599 24.2197 13.3825 24.2935 13.2856L24.5365 13.4787C24.4859 13.5554 24.4215 13.6285 24.3434 13.6979C24.2652 13.7674 24.169 13.8238 24.0547 13.8672C23.9419 13.9106 23.8081 13.9323 23.6533 13.9323Z" fill="white"/>
    <path d="M28.5188 20H27.0374L26.667 10.7407H28.8892L28.5188 20Z" fill="white"/>
    <circle cx="27.9633" cy="22.7778" r="1.2963" fill="white"/>
    <path d="M13.5476 15.5555V23.8889H12.5928V15.5555H13.5476Z" fill="white"/>
    <path d="M16.0975 18.0186V23.8889H15.1427V18.0186H16.0975ZM15.0884 16.4616C15.0884 16.2988 15.1336 16.1614 15.2241 16.0492C15.3145 15.9371 15.4501 15.8811 15.631 15.8811C15.8118 15.8811 15.9474 15.9371 16.0379 16.0492C16.1319 16.1614 16.1789 16.2988 16.1789 16.4616C16.1789 16.6171 16.1319 16.7509 16.0379 16.8631C15.9474 16.9716 15.8118 17.0258 15.631 17.0258C15.4501 17.0258 15.3145 16.9716 15.2241 16.8631C15.1336 16.7509 15.0884 16.6171 15.0884 16.4616Z" fill="white"/>
    <path d="M20.465 22.3861C20.465 22.2378 20.4288 22.1076 20.3564 21.9954C20.2841 21.8833 20.1648 21.7748 19.9984 21.6699C19.8356 21.565 19.615 21.4529 19.3365 21.3335C19.0652 21.2214 18.8211 21.1111 18.6041 21.0026C18.3907 20.8905 18.2098 20.7693 18.0615 20.6391C17.9132 20.5089 17.7993 20.3588 17.7197 20.1888C17.6438 20.0152 17.6058 19.8108 17.6058 19.5757C17.6058 19.3406 17.6492 19.1236 17.736 18.9247C17.8264 18.7221 17.953 18.5449 18.1158 18.393C18.2785 18.2411 18.4739 18.1235 18.7017 18.0404C18.9296 17.9535 19.1846 17.9101 19.4667 17.9101C19.8682 17.9101 20.21 17.9879 20.4921 18.1434C20.6084 18.2075 20.7102 18.3004 20.7956 18.393C20.5518 18.8759 20.5952 18.789 20.3022 19.2285C20.2299 19.0838 20.1232 18.9663 19.9821 18.8759C19.841 18.7818 19.6692 18.7348 19.4667 18.7348C19.2533 18.7348 19.0797 18.7728 18.9459 18.8487C18.812 18.9247 18.7144 19.0241 18.6529 19.1471C18.595 19.2665 18.5661 19.3985 18.5661 19.5432C18.5661 19.6517 18.5805 19.7457 18.6095 19.8253C18.642 19.9012 18.6963 19.9736 18.7722 20.0423C18.8482 20.1074 18.9513 20.1761 19.0815 20.2485C19.2153 20.3172 19.3853 20.3968 19.5915 20.4872C19.9893 20.6427 20.3239 20.8 20.5952 20.9592C20.8664 21.1183 21.0726 21.3046 21.2137 21.518C21.3547 21.7314 21.4252 21.9954 21.4252 22.3101C21.4252 22.5669 21.3782 22.8002 21.2842 23.01C21.1938 23.2161 21.0635 23.3934 20.8936 23.5417C20.7236 23.6899 20.5192 23.8039 20.2805 23.8834C20.0454 23.9594 19.7814 23.9974 19.4884 23.9974C19.0471 23.9974 18.6728 23.9106 18.3653 23.737C18.0615 23.5597 17.6709 23.0479 17.6709 23.0479C17.6709 23.0479 17.7212 22.7778 18.3979 22.1311C18.4087 22.4059 18.4702 22.6193 18.5824 22.7713C18.6981 22.9232 18.8373 23.0281 19.0001 23.0859C19.1629 23.1438 19.3256 23.1727 19.4884 23.1727C19.7018 23.1727 19.8808 23.142 20.0255 23.0805C20.1702 23.0154 20.2787 22.9232 20.351 22.8038C20.427 22.6844 20.465 22.5452 20.465 22.3861Z" fill="white"/>
    <path d="M24.8269 18.0186V18.789H22.0871V18.0186H24.8269ZM22.9823 16.5918H23.9426V22.4349C23.9426 22.6338 23.9661 22.7839 24.0131 22.8852C24.0638 22.9865 24.1271 23.0534 24.203 23.0859C24.279 23.1185 24.3604 23.1348 24.4472 23.1348C24.5123 23.1348 24.5846 23.1275 24.6642 23.1131C24.7437 23.095 24.798 23.0805 24.8269 23.0696L24.8215 23.8889C24.7564 23.9142 24.6696 23.9377 24.5611 23.9594C24.4526 23.9847 24.3151 23.9974 24.1488 23.9974C23.9426 23.9974 23.7509 23.9486 23.5737 23.8509C23.3964 23.7532 23.2536 23.5905 23.1451 23.3626C23.0366 23.1311 22.9823 22.8201 22.9823 22.4295V16.5918Z" fill="white"/>
    <path d="M6.58947 12.8267L5.63629 12.3787L5.72861 12.1823L6.68179 12.6303L6.58947 12.8267ZM6.00379 13.015L5.8506 12.943L6.05432 12.5096L6.20751 12.5816L6.00379 13.015ZM6.38944 13.2523L6.2356 13.1799L6.46086 12.7007L6.61471 12.7731L6.38944 13.2523Z" fill="white"/>
    <path d="M5.45092 13.6913L5.46524 13.6964C5.51933 13.7156 5.56635 13.741 5.60632 13.7725C5.64675 13.8043 5.67854 13.8409 5.70169 13.8823C5.72484 13.9238 5.73808 13.9695 5.7414 14.0192C5.74517 14.0692 5.73714 14.1221 5.71731 14.178C5.69748 14.2339 5.67028 14.2803 5.63572 14.3172C5.6016 14.3542 5.56249 14.3815 5.51838 14.3991C5.47411 14.4172 5.42628 14.4258 5.37489 14.425C5.32396 14.4243 5.27145 14.4144 5.21736 14.3952L5.20304 14.3901C5.14941 14.3711 5.10238 14.3457 5.06196 14.314C5.02199 14.2824 4.99028 14.2456 4.96684 14.2035C4.94368 14.162 4.93045 14.1164 4.92713 14.0666C4.92381 14.0168 4.93207 13.9639 4.9519 13.908C4.97173 13.8521 4.9987 13.8057 5.03281 13.7687C5.06676 13.7321 5.10587 13.7048 5.15015 13.6867C5.19471 13.6693 5.24246 13.6609 5.2934 13.6615C5.34478 13.6624 5.39729 13.6723 5.45092 13.6913ZM5.39559 13.8927L5.38128 13.8877C5.35037 13.8767 5.32054 13.8692 5.29179 13.8651C5.26304 13.8611 5.23634 13.8613 5.2117 13.8659C5.18735 13.8711 5.16602 13.8814 5.14773 13.8969C5.12943 13.9124 5.11529 13.9343 5.10529 13.9625C5.09562 13.9897 5.093 14.0152 5.09743 14.0387C5.10186 14.0623 5.11198 14.0835 5.12778 14.1025C5.14404 14.1215 5.16461 14.1385 5.18949 14.1535C5.21421 14.1689 5.24203 14.1821 5.27293 14.1931L5.28725 14.1982C5.31725 14.2088 5.34648 14.2158 5.37493 14.2193C5.40368 14.2233 5.43046 14.2229 5.45527 14.2179C5.48037 14.2135 5.50229 14.2036 5.52104 14.1882C5.53979 14.1729 5.55408 14.1513 5.56392 14.1236C5.57375 14.0959 5.57623 14.0702 5.57134 14.0464C5.5663 14.0231 5.5555 14.0017 5.53894 13.982C5.52268 13.9629 5.50211 13.9459 5.47723 13.9309C5.4528 13.9161 5.42559 13.9034 5.39559 13.8927Z" fill="white"/>
    <path d="M5.11825 15.4212L4.52792 15.2599L4.58285 15.0589L5.33785 15.2652L5.28617 15.4543L5.11825 15.4212ZM5.22564 15.695L5.04028 15.6406C5.04435 15.6312 5.04875 15.6197 5.0535 15.606C5.05858 15.5929 5.06265 15.5807 5.0657 15.5696C5.07345 15.5412 5.07647 15.5155 5.07475 15.4925C5.07337 15.4702 5.0676 15.4501 5.05746 15.4323C5.04719 15.415 5.03301 15.4001 5.01492 15.3877C4.99669 15.3757 4.97492 15.3658 4.94958 15.3579L4.97321 15.3208C5.02205 15.3342 5.06561 15.3513 5.10387 15.3723C5.14261 15.3934 5.17478 15.4174 5.2004 15.4444C5.22589 15.4719 5.24325 15.5016 5.2525 15.5336C5.26174 15.5657 5.26154 15.5993 5.25187 15.6347C5.24882 15.6459 5.24478 15.657 5.23974 15.6681C5.23516 15.6794 5.23046 15.6883 5.22564 15.695Z" fill="white"/>
    <path d="M4.30578 17.0792L5.23644 17.2141L5.20633 17.4217L4.10672 17.2623L4.13382 17.0754L4.30578 17.0792ZM4.58583 16.6198L4.60086 16.622C4.66004 16.6306 4.71277 16.645 4.75903 16.6654C4.80578 16.6858 4.8447 16.7114 4.8758 16.7423C4.9069 16.7731 4.92927 16.8087 4.94289 16.8492C4.95651 16.8897 4.95983 16.934 4.95284 16.9822C4.94626 17.0276 4.93097 17.0658 4.90697 17.0969C4.8829 17.1285 4.85147 17.1537 4.81269 17.1724C4.77432 17.1917 4.7302 17.2053 4.68033 17.2131C4.63094 17.2211 4.5776 17.2243 4.52031 17.2228L4.48738 17.2181C4.43442 17.2036 4.38586 17.1855 4.34171 17.164C4.29756 17.1425 4.25984 17.1171 4.22852 17.0877C4.19762 17.0588 4.17512 17.0259 4.16101 16.9887C4.1469 16.9516 4.14317 16.9101 4.14982 16.8643C4.15681 16.8161 4.17282 16.7746 4.19785 16.7397C4.22282 16.7053 4.25483 16.6778 4.29388 16.6571C4.33287 16.637 4.37719 16.6237 4.42686 16.6172C4.47652 16.6108 4.52951 16.6116 4.58583 16.6198ZM4.57097 16.8282L4.55593 16.826C4.52396 16.8213 4.49378 16.8194 4.46541 16.8202C4.43696 16.8214 4.41117 16.8262 4.38804 16.8345C4.36531 16.8434 4.34663 16.8563 4.332 16.8732C4.31777 16.8906 4.30869 16.9129 4.30474 16.9401C4.29962 16.9754 4.30328 17.0057 4.3157 17.0309C4.32861 17.0562 4.34827 17.0768 4.3747 17.0928C4.40106 17.1093 4.43248 17.1212 4.46895 17.1284L4.56273 17.142C4.59301 17.1449 4.62059 17.1445 4.6455 17.1408C4.67081 17.1377 4.69302 17.1307 4.71214 17.1198C4.73119 17.1094 4.74691 17.0951 4.75929 17.0769C4.7716 17.0592 4.77966 17.0373 4.78347 17.011C4.78734 16.9843 4.78446 16.9605 4.77482 16.9396C4.76566 16.9188 4.75144 16.9009 4.73217 16.8859C4.71283 16.8714 4.68926 16.8592 4.66146 16.8493C4.63406 16.84 4.6039 16.8329 4.57097 16.8282Z" fill="white"/>
    <path d="M3.95903 18.5138C3.96183 18.4531 3.97398 18.3991 3.99547 18.3519C4.01745 18.3046 4.04655 18.2649 4.0828 18.2328C4.11902 18.2011 4.16042 18.1775 4.20701 18.1618C4.25408 18.1461 4.30363 18.1394 4.35565 18.1418L4.38456 18.1432C4.44381 18.1459 4.49762 18.1568 4.54598 18.176C4.59434 18.1951 4.63586 18.2211 4.67054 18.2541C4.70521 18.2876 4.73113 18.3274 4.74831 18.3736C4.76597 18.4198 4.77349 18.4713 4.77086 18.5281C4.76831 18.5835 4.75689 18.6322 4.7366 18.6743C4.71632 18.7163 4.68865 18.751 4.65359 18.7783C4.61851 18.8062 4.57702 18.8265 4.52912 18.8392C4.4817 18.852 4.42933 18.8571 4.372 18.8544L4.28529 18.8504L4.31398 18.229L4.45272 18.2354L4.43347 18.6523L4.44937 18.6531C4.47827 18.6544 4.50429 18.6503 4.52742 18.6407C4.55101 18.6317 4.57003 18.6171 4.58448 18.597C4.59892 18.5769 4.60689 18.5507 4.60838 18.5185C4.60964 18.491 4.60471 18.4671 4.59358 18.4468C4.58245 18.4265 4.56633 18.4096 4.54523 18.3961C4.52411 18.383 4.499 18.3727 4.4699 18.3651C4.44127 18.358 4.4096 18.3536 4.37492 18.352L4.34601 18.3507C4.3147 18.3492 4.2856 18.3522 4.2587 18.3597C4.23178 18.3676 4.20831 18.3793 4.18829 18.3948C4.16824 18.4108 4.15237 18.4303 4.14068 18.4534C4.12897 18.477 4.12242 18.504 4.12102 18.5343C4.11928 18.5719 4.12489 18.6072 4.13786 18.6401C4.15128 18.6736 4.17238 18.7028 4.20116 18.7278L4.08665 18.8239C4.0638 18.8064 4.04219 18.783 4.02183 18.7535C4.00144 18.7246 3.98517 18.69 3.97302 18.6499C3.96136 18.6098 3.95669 18.5644 3.95903 18.5138Z" fill="white"/>
    <path d="M4.73343 20.0747L4.58592 20.0787L4.5736 19.6232L4.72112 19.6192L4.73343 20.0747ZM4.91724 19.7268L4.92287 19.935L4.18312 19.955C4.16046 19.9556 4.14319 19.959 4.13129 19.9651C4.11941 19.9717 4.11122 19.9811 4.10672 19.9933C4.10271 20.0054 4.10095 20.0207 4.10145 20.039C4.1018 20.052 4.10259 20.0636 4.10383 20.0737C4.10556 20.0842 4.10725 20.0931 4.10889 20.1003L3.95561 20.1052C3.94935 20.0875 3.94424 20.0683 3.94031 20.0477C3.93638 20.027 3.93407 20.0042 3.93339 19.9791C3.93215 19.9333 3.93855 19.8931 3.95256 19.8585C3.96708 19.8243 3.99096 19.7976 4.02421 19.7784C4.05746 19.7592 4.10157 19.7488 4.15652 19.7473L4.91724 19.7268Z" fill="white"/>
    <path d="M4.17526 20.9267L4.52217 20.8918C4.54713 20.8893 4.56807 20.883 4.585 20.8731C4.60241 20.8631 4.61529 20.849 4.62363 20.8307C4.63202 20.8129 4.63486 20.7905 4.63216 20.7637C4.62984 20.7406 4.62376 20.7211 4.61391 20.7051C4.60454 20.6891 4.59197 20.6773 4.57617 20.6697C4.56086 20.662 4.54337 20.6592 4.5237 20.6611L4.50285 20.4539C4.53595 20.4505 4.56816 20.455 4.59945 20.4674C4.63074 20.4798 4.65914 20.4995 4.68464 20.5265C4.71061 20.5534 4.7321 20.5864 4.74911 20.6254C4.76617 20.6649 4.77723 20.7098 4.7823 20.7602C4.78838 20.8206 4.78371 20.8754 4.76829 20.9244C4.75287 20.9735 4.72635 21.0135 4.68875 21.0444C4.65119 21.0758 4.60219 21.0946 4.54173 21.1006L4.20849 21.1342C4.16578 21.1385 4.13102 21.1446 4.1042 21.1526C4.07786 21.1606 4.05512 21.1707 4.03598 21.1828L4.02374 21.184L4.00268 20.9746C4.02278 20.9624 4.0484 20.952 4.07953 20.9436C4.1112 20.9355 4.14311 20.9299 4.17526 20.9267ZM4.4767 20.924L4.35953 20.9372L4.34787 20.8213C4.34512 20.794 4.33961 20.7705 4.33135 20.751C4.32308 20.7315 4.31254 20.7158 4.29972 20.704C4.28738 20.6922 4.27346 20.6839 4.25796 20.6792C4.24251 20.6749 4.2259 20.6737 4.20815 20.6754C4.19039 20.6772 4.17473 20.6829 4.16116 20.6925C4.14806 20.7021 4.13821 20.7149 4.1316 20.7311C4.12546 20.7472 4.12343 20.7656 4.12551 20.7863C4.12865 20.8174 4.13761 20.8439 4.1524 20.8657C4.1672 20.8875 4.18434 20.9037 4.20382 20.9143C4.22336 20.9255 4.24131 20.9304 4.25767 20.9293L4.17537 20.9928C4.15492 20.9871 4.13347 20.9786 4.111 20.9673C4.08859 20.9565 4.06701 20.9419 4.04627 20.9236C4.02601 20.9053 4.00845 20.8826 3.99361 20.8555C3.97925 20.8284 3.97011 20.7953 3.9662 20.7565C3.96123 20.7071 3.96655 20.6612 3.98217 20.6189C3.99832 20.5771 4.02273 20.5426 4.05539 20.5156C4.08858 20.489 4.12773 20.4734 4.17283 20.4689C4.21362 20.4648 4.25062 20.4688 4.28383 20.481C4.31704 20.4931 4.34594 20.513 4.37053 20.5406C4.39564 20.5686 4.41598 20.6046 4.43156 20.6486C4.44761 20.6925 4.45863 20.7443 4.46461 20.8038L4.4767 20.924Z" fill="white"/>
    <path d="M4.94065 22.1299L4.16966 22.2648L4.13363 22.0588L4.90462 21.924L4.94065 22.1299ZM5.10332 21.876C5.13325 21.8708 5.15978 21.8769 5.18291 21.8944C5.20605 21.9119 5.22069 21.9382 5.22684 21.9734C5.2329 22.008 5.22803 22.0375 5.2122 22.0618C5.19647 22.0866 5.17364 22.1016 5.14371 22.1069C5.11378 22.1121 5.08721 22.1057 5.06399 22.0878C5.04086 22.0703 5.02626 22.0442 5.02019 22.0095C5.01404 21.9743 5.01888 21.9446 5.0347 21.9203C5.05052 21.896 5.0734 21.8812 5.10332 21.876Z" fill="white"/>
    <path d="M5.40515 22.7949L4.32151 23.0404L4.27531 22.8365L5.35895 22.591L5.40515 22.7949Z" fill="white"/>
    <path d="M4.76506 23.9167C4.77937 23.9124 4.79102 23.9043 4.80004 23.8925C4.80905 23.8807 4.81497 23.862 4.81779 23.8365C4.82121 23.8112 4.8207 23.7764 4.81625 23.7318C4.81306 23.6915 4.81272 23.653 4.81522 23.6165C4.81833 23.5803 4.82524 23.5474 4.83594 23.518C4.84679 23.489 4.86241 23.464 4.8828 23.4432C4.90365 23.4223 4.93 23.407 4.96183 23.3973C4.99321 23.3878 5.02478 23.3855 5.05653 23.3905C5.08842 23.3959 5.11883 23.4081 5.14777 23.427C5.1773 23.4463 5.20368 23.4725 5.22689 23.5058C5.2507 23.5394 5.26969 23.5795 5.28385 23.6261C5.30361 23.6911 5.31019 23.7501 5.30359 23.803C5.29712 23.8564 5.27944 23.9011 5.25056 23.9371C5.22228 23.9734 5.18507 23.9986 5.13892 24.0126L5.07837 23.8132C5.09775 23.8074 5.11379 23.7979 5.12649 23.785C5.1398 23.7724 5.14824 23.7562 5.15182 23.7365C5.156 23.7171 5.15403 23.694 5.1459 23.6672C5.13917 23.6451 5.12943 23.6271 5.11668 23.6134C5.10439 23.5994 5.09046 23.5901 5.07487 23.5852C5.05989 23.5807 5.04479 23.5808 5.02956 23.5854C5.01802 23.5889 5.00834 23.5944 5.00051 23.6018C4.99329 23.6095 4.98767 23.62 4.98365 23.6334C4.97963 23.6467 4.97705 23.6631 4.97592 23.6826C4.97539 23.7024 4.97658 23.7262 4.9795 23.7541C4.98482 23.8114 4.98494 23.8641 4.97984 23.912C4.9752 23.9598 4.96144 24.0007 4.93855 24.0349C4.91613 24.0689 4.88046 24.0934 4.83155 24.1082C4.79833 24.1183 4.76563 24.1202 4.73346 24.1138C4.70129 24.1075 4.67061 24.0936 4.64144 24.0722C4.61273 24.0507 4.58671 24.0223 4.5634 23.9871C4.54069 23.9521 4.52205 23.9107 4.50747 23.8627C4.4863 23.793 4.48082 23.7302 4.49102 23.6741C4.50136 23.6186 4.52189 23.5725 4.55262 23.536C4.58395 23.4998 4.61992 23.4755 4.66052 23.4631L4.71793 23.6521C4.69098 23.6613 4.67117 23.6749 4.65848 23.6928C4.64593 23.7113 4.63905 23.7317 4.63784 23.7543C4.63676 23.7773 4.63987 23.8008 4.64716 23.8248C4.65501 23.8506 4.66499 23.871 4.6771 23.886C4.68967 23.9008 4.70328 23.9108 4.71794 23.9159C4.73321 23.9214 4.74891 23.9216 4.76506 23.9167Z" fill="white"/>
    <path d="M5.14794 25.1897L5.01753 25.2395C4.96762 25.2589 4.91239 25.2658 4.85181 25.2604C4.79141 25.2554 4.73761 25.24 4.69041 25.2144L4.70308 25.0931C4.72812 25.0963 4.75308 25.0993 4.77795 25.1021C4.80281 25.1048 4.82901 25.105 4.85653 25.1026C4.88404 25.1002 4.91354 25.0929 4.94501 25.0807L5.0846 25.0265L5.14794 25.1897Z" fill="white"/>
    <path d="M5.90953 26.7981C5.9227 26.791 5.93254 26.7808 5.93905 26.7675C5.94556 26.7541 5.94769 26.7346 5.94542 26.709C5.94381 26.6836 5.93645 26.6495 5.92332 26.6068C5.91226 26.5678 5.90435 26.5302 5.89962 26.4939C5.89554 26.4577 5.89584 26.4242 5.90054 26.3932C5.90547 26.3626 5.91588 26.3351 5.93178 26.3107C5.9481 26.2861 5.97092 26.2659 6.00023 26.2501C6.02912 26.2346 6.05962 26.2261 6.09173 26.2248C6.12406 26.2238 6.15628 26.2298 6.18837 26.2426C6.22112 26.2557 6.25215 26.2763 6.28145 26.3043C6.31141 26.3326 6.33792 26.3681 6.36097 26.411C6.39315 26.4709 6.41121 26.5275 6.41514 26.5807C6.41931 26.6343 6.41077 26.6816 6.38954 26.7225C6.36895 26.7637 6.33742 26.7957 6.29494 26.8185L6.19634 26.635C6.21418 26.6254 6.22806 26.613 6.23797 26.5978C6.24853 26.5829 6.25363 26.5653 6.25325 26.5453C6.25353 26.5254 6.24705 26.5032 6.23382 26.4785C6.22286 26.4581 6.20978 26.4425 6.19457 26.4315C6.17978 26.4203 6.16427 26.4138 6.14804 26.4121C6.13246 26.4106 6.11766 26.4137 6.10365 26.4212C6.09302 26.4269 6.08461 26.4342 6.07839 26.443C6.07283 26.452 6.06939 26.4634 6.06807 26.4773C6.06675 26.4911 6.06746 26.5077 6.07018 26.527C6.07356 26.5466 6.07942 26.5697 6.08776 26.5964C6.10426 26.6516 6.11473 26.7032 6.11916 26.7512C6.12402 26.7989 6.11859 26.8418 6.10288 26.8798C6.08759 26.9176 6.05743 26.9486 6.0124 26.9728C5.98181 26.9892 5.95012 26.9975 5.91733 26.9976C5.88453 26.9977 5.85173 26.9901 5.81892 26.9749C5.78653 26.9595 5.75544 26.9367 5.72565 26.9068C5.69651 26.877 5.67007 26.84 5.64634 26.7958C5.61187 26.7317 5.59413 26.6711 5.5931 26.6142C5.5923 26.5577 5.60337 26.5085 5.62631 26.4666C5.6499 26.4249 5.68038 26.394 5.71777 26.3739L5.81123 26.5479C5.78662 26.5622 5.76987 26.5794 5.76097 26.5996C5.75229 26.6201 5.74958 26.6415 5.75282 26.6639C5.7563 26.6866 5.76397 26.7091 5.77584 26.7312C5.78862 26.755 5.80242 26.773 5.81723 26.7853C5.83248 26.7974 5.84779 26.8045 5.86317 26.8066C5.87921 26.8089 5.89466 26.8061 5.90953 26.7981Z" fill="white"/>
    <path d="M6.47447 28.2347C6.44055 28.1843 6.41812 28.1337 6.4072 28.0829C6.39668 28.0319 6.3964 27.9827 6.40637 27.9353C6.4166 27.8883 6.43573 27.8446 6.46378 27.8042C6.49223 27.7636 6.52806 27.7287 6.57127 27.6996L6.59528 27.6835C6.64449 27.6504 6.69421 27.6271 6.74444 27.6136C6.79468 27.6002 6.84355 27.5963 6.89106 27.6021C6.93883 27.6084 6.98338 27.6249 7.02469 27.6517C7.0664 27.6783 7.10314 27.7152 7.13491 27.7624C7.16588 27.8084 7.18574 27.8543 7.19449 27.9002C7.20325 27.946 7.20171 27.9904 7.18985 28.0332C7.17827 28.0765 7.15705 28.1175 7.12618 28.1563C7.09572 28.1948 7.05668 28.2301 7.00907 28.2621L6.93705 28.3106L6.58974 27.7945L6.70496 27.7169L6.93799 28.0632L6.95119 28.0543C6.9752 28.0382 6.99364 28.0194 7.00652 27.9979C7.02007 27.9766 7.02666 27.9535 7.02629 27.9288C7.02591 27.9041 7.01671 27.8783 6.99867 27.8515C6.98332 27.8287 6.96513 27.8124 6.94409 27.8028C6.92305 27.7931 6.90002 27.7891 6.87502 27.7908C6.85028 27.7929 6.82396 27.7996 6.79606 27.8108C6.76882 27.8222 6.7408 27.8375 6.71199 27.8569L6.68798 27.8731C6.66198 27.8906 6.64039 27.9103 6.62324 27.9323C6.60635 27.9548 6.59448 27.9781 6.58763 28.0025C6.58104 28.0273 6.57995 28.0524 6.58434 28.078C6.589 28.1039 6.59981 28.1295 6.61677 28.1547C6.63777 28.1859 6.66329 28.2108 6.69334 28.2296C6.72405 28.2484 6.7584 28.2593 6.7964 28.2622L6.76172 28.4076C6.73296 28.4072 6.70163 28.4013 6.66774 28.3898C6.63412 28.3787 6.60047 28.3607 6.56679 28.3357C6.53351 28.3104 6.50274 28.2767 6.47447 28.2347Z" fill="white"/>
    <path d="M7.40199 29.5261C7.36327 29.4793 7.33598 29.4311 7.32011 29.3817C7.30462 29.3319 7.2995 29.283 7.30475 29.2348C7.31031 29.1871 7.32505 29.1417 7.34899 29.0988C7.3733 29.0555 7.40553 29.0173 7.44567 28.9841L7.46797 28.9657C7.51368 28.9279 7.56087 28.8998 7.60954 28.8815C7.6582 28.8631 7.70646 28.8545 7.75431 28.8556C7.80247 28.8571 7.84842 28.8692 7.89217 28.8918C7.9363 28.9141 7.97649 28.9472 8.01275 28.9911C8.04809 29.0338 8.07237 29.0776 8.0856 29.1223C8.09883 29.1671 8.10165 29.2114 8.09407 29.2552C8.0868 29.2994 8.06971 29.3423 8.04282 29.3839C8.01629 29.4253 7.98091 29.4642 7.93669 29.5008L7.86979 29.5561L7.47337 29.0766L7.58041 28.9881L7.84638 29.3098L7.85864 29.2997C7.88094 29.2812 7.89745 29.2607 7.90816 29.2381C7.91954 29.2155 7.92383 29.192 7.92103 29.1674C7.91822 29.1428 7.90652 29.118 7.88593 29.0931C7.86842 29.072 7.84871 29.0576 7.82682 29.05C7.80493 29.0425 7.78163 29.0408 7.75691 29.0449C7.73251 29.0495 7.70697 29.0587 7.6803 29.0726C7.65431 29.0866 7.62794 29.1046 7.60118 29.1268L7.57888 29.1452C7.55472 29.1652 7.53519 29.187 7.52028 29.2106C7.50567 29.2345 7.49616 29.259 7.49174 29.2839C7.48763 29.3092 7.48902 29.3343 7.4959 29.3593C7.50309 29.3846 7.51636 29.409 7.53572 29.4324C7.55969 29.4614 7.58754 29.4838 7.61928 29.4995C7.6517 29.5152 7.68696 29.5227 7.72506 29.5218L7.70485 29.6699C7.67619 29.6723 7.64444 29.6695 7.60958 29.6614C7.57503 29.6537 7.53977 29.639 7.50379 29.6175C7.46819 29.5956 7.43425 29.5651 7.40199 29.5261Z" fill="white"/>
    <path d="M9.16198 31.0874L9.90465 30.6352L10.084 30.7972L9.10586 31.333L8.98775 31.2264L9.16198 31.0874ZM9.55086 30.3157L9.17594 31.1L9.05647 31.2884L8.93728 31.1808L9.37263 30.1548L9.55086 30.3157Z" fill="white"/>
    <path d="M10.5302 31.5187L10.0492 32.1362L9.88428 32.0078L10.3652 31.3903L10.5302 31.5187ZM10.4803 31.2213C10.499 31.1974 10.5228 31.1841 10.5517 31.1815C10.5805 31.179 10.6091 31.1887 10.6372 31.2106C10.665 31.2322 10.6812 31.2574 10.6858 31.286C10.6907 31.3149 10.6839 31.3414 10.6652 31.3653C10.6466 31.3893 10.6226 31.4024 10.5933 31.4047C10.5644 31.4073 10.5361 31.3977 10.5083 31.3761C10.4802 31.3542 10.4638 31.3289 10.4592 31.3002C10.4546 31.2716 10.4616 31.2453 10.4803 31.2213Z" fill="white"/>
    <path d="M10.9512 32.585L11.1448 32.295C11.1587 32.2742 11.1672 32.254 11.1703 32.2347C11.1736 32.2149 11.1709 32.1959 11.1621 32.1779C11.1537 32.1601 11.1382 32.1437 11.1158 32.1287C11.0965 32.1158 11.0776 32.1081 11.059 32.1056C11.0407 32.1026 11.0236 32.1048 11.0077 32.1122C10.992 32.1191 10.9787 32.1308 10.9677 32.1472L10.7944 32.0316C10.8129 32.0039 10.8369 31.9819 10.8663 31.9656C10.8957 31.9493 10.929 31.9399 10.966 31.9374C11.0034 31.9345 11.0425 31.9388 11.0834 31.9505C11.1247 31.9624 11.1664 31.9825 11.2085 32.0106C11.2591 32.0443 11.2984 32.0827 11.3264 32.1258C11.3545 32.1689 11.3685 32.2148 11.3685 32.2635C11.3689 32.3124 11.3522 32.3622 11.3184 32.4127L11.1325 32.6913C11.1086 32.727 11.0913 32.7577 11.0804 32.7835C11.0699 32.8089 11.0632 32.8329 11.0603 32.8553L11.0535 32.8656L10.8784 32.7487C10.8818 32.7254 10.8901 32.6991 10.9034 32.6696C10.9173 32.6401 10.9332 32.6119 10.9512 32.585ZM11.1407 32.3506L11.0764 32.4495L10.9796 32.3848C10.9567 32.3695 10.9351 32.3589 10.9148 32.3529C10.8945 32.3468 10.8757 32.345 10.8584 32.3474C10.8414 32.3494 10.8262 32.3549 10.8127 32.3638C10.7996 32.373 10.788 32.3851 10.7781 32.3999C10.7682 32.4148 10.7627 32.4305 10.7615 32.447C10.7605 32.4632 10.7642 32.479 10.7725 32.4944C10.781 32.5094 10.7939 32.5226 10.8112 32.5342C10.8372 32.5516 10.8634 32.5615 10.8896 32.5639C10.9158 32.5663 10.9392 32.5634 10.9598 32.5551C10.9808 32.5471 10.9961 32.5364 11.0056 32.523L11.0023 32.627C10.9849 32.6391 10.9647 32.6503 10.9417 32.6604C10.9191 32.6709 10.8941 32.6783 10.8668 32.6827C10.8398 32.6867 10.8111 32.6858 10.7808 32.68C10.7507 32.6738 10.7194 32.6599 10.6869 32.6382C10.6456 32.6106 10.6136 32.5774 10.5909 32.5384C10.5688 32.4994 10.5577 32.4586 10.5576 32.4162C10.5582 32.3737 10.5711 32.3336 10.5962 32.2959C10.619 32.2618 10.6456 32.2358 10.6761 32.2179C10.7066 32.2 10.7404 32.1903 10.7773 32.1888C10.8149 32.1873 10.8556 32.1945 10.8994 32.2104C10.9436 32.2259 10.9905 32.2503 11.0402 32.2835L11.1407 32.3506Z" fill="white"/>
    <path d="M13.5042 33.6086L13.326 33.9861C13.3027 33.9969 13.2707 34.0055 13.2298 34.0118C13.1892 34.0177 13.141 34.0165 13.0851 34.0083C13.0293 34.0001 12.9667 33.9796 12.8974 33.9468C12.8359 33.9178 12.7846 33.8813 12.7434 33.8374C12.7025 33.793 12.673 33.7425 12.6549 33.686C12.6373 33.6297 12.632 33.5685 12.6392 33.5026C12.6465 33.4362 12.6675 33.3663 12.7021 33.2931L12.7302 33.2335C12.7648 33.1603 12.8049 33.0995 12.8506 33.0512C12.8968 33.0032 12.9468 32.9679 13.0007 32.9453C13.0545 32.9227 13.1107 32.9127 13.1692 32.9153C13.2277 32.9178 13.2869 32.9332 13.3466 32.9614C13.4295 33.0006 13.4911 33.0462 13.5316 33.0984C13.5722 33.1501 13.5953 33.2063 13.6007 33.267C13.6068 33.3275 13.5987 33.3898 13.5765 33.4539L13.3861 33.3641C13.3966 33.3295 13.4007 33.2971 13.3985 33.2667C13.3963 33.2363 13.3857 33.2084 13.3668 33.183C13.3483 33.1577 13.3193 33.1357 13.2796 33.117C13.2469 33.1015 13.2145 33.0945 13.1824 33.0959C13.1509 33.097 13.1204 33.1063 13.0908 33.1238C13.0612 33.1413 13.0328 33.1669 13.0058 33.2005C12.9787 33.2341 12.9533 33.276 12.9296 33.3261L12.9009 33.387C12.8774 33.4367 12.8614 33.483 12.8529 33.5259C12.8446 33.5684 12.8436 33.6071 12.85 33.6421C12.8571 33.6769 12.8715 33.7074 12.8932 33.7337C12.9149 33.76 12.9443 33.7818 12.9814 33.7993C13.0124 33.814 13.0393 33.8235 13.0623 33.8279C13.0857 33.8326 13.1055 33.8342 13.1216 33.8327C13.1384 33.8311 13.1519 33.8284 13.1622 33.8247L13.2419 33.656L13.0627 33.5713L13.1288 33.4313L13.5042 33.6086Z" fill="white"/>
    <path d="M14.5318 33.4348L14.1336 34.4721L13.9385 34.3972L14.3366 33.3599L14.5318 33.4348Z" fill="white"/>
    <path d="M14.6849 34.2873L14.6893 34.2728C14.706 34.2179 14.7292 34.1697 14.7589 34.1284C14.7887 34.0865 14.8239 34.0531 14.8642 34.0281C14.9046 34.003 14.9496 33.9877 14.9991 33.9821C15.0489 33.976 15.1021 33.9816 15.1589 33.9989C15.2156 34.0161 15.2632 34.0412 15.3016 34.074C15.3402 34.1064 15.3692 34.1442 15.3889 34.1874C15.4089 34.2308 15.4198 34.2782 15.4213 34.3296C15.423 34.3805 15.4154 34.4334 15.3988 34.4883L15.3944 34.5029C15.3778 34.5573 15.3546 34.6055 15.3248 34.6473C15.2951 34.6887 15.2597 34.722 15.2188 34.7474C15.1784 34.7724 15.1334 34.7877 15.0838 34.7933C15.0343 34.7989 14.9811 34.7931 14.9243 34.7759C14.8676 34.7586 14.8199 34.7338 14.7814 34.7015C14.7433 34.6692 14.7142 34.6314 14.6941 34.588C14.6746 34.5443 14.6641 34.497 14.6624 34.4461C14.6609 34.3947 14.6684 34.3418 14.6849 34.2873ZM14.8887 34.3334L14.8842 34.3479C14.8747 34.3793 14.8686 34.4094 14.8658 34.4383C14.8631 34.4672 14.8646 34.4939 14.8703 34.5183C14.8766 34.5424 14.8879 34.5632 14.9042 34.5808C14.9206 34.5983 14.943 34.6115 14.9716 34.6202C14.9993 34.6286 15.0248 34.63 15.0482 34.6245C15.0715 34.619 15.0923 34.6079 15.1104 34.5913C15.1288 34.5741 15.1448 34.5528 15.1586 34.5273C15.1729 34.5019 15.1848 34.4735 15.1943 34.4421L15.1987 34.4276C15.208 34.3971 15.2137 34.3676 15.2158 34.339C15.2185 34.3101 15.2168 34.2834 15.2107 34.2588C15.2051 34.2339 15.1943 34.2125 15.1781 34.1945C15.1619 34.1764 15.1397 34.1632 15.1116 34.1546C15.0834 34.1461 15.0576 34.1448 15.0341 34.1507C15.0111 34.1568 14.9901 34.1686 14.9712 34.1861C14.9529 34.2032 14.9368 34.2245 14.923 34.2501C14.9094 34.2751 14.8979 34.3029 14.8887 34.3334Z" fill="white"/>
    <path d="M16.3269 34.0232L16.5313 34.0638L16.3497 34.9776L16.2942 35.1495L16.1104 35.113L16.3269 34.0232ZM16.8786 34.8585L16.8756 34.8734C16.8642 34.9306 16.8477 34.9819 16.8259 35.0273C16.8045 35.0727 16.7779 35.1104 16.7459 35.1404C16.7139 35.17 16.6773 35.1907 16.6361 35.2027C16.5955 35.2143 16.5501 35.2151 16.4999 35.2051C16.4531 35.1958 16.4143 35.1783 16.3835 35.1525C16.3532 35.1268 16.3299 35.0944 16.3136 35.0553C16.2973 35.0162 16.2867 34.972 16.2817 34.9228C16.2767 34.8737 16.2761 34.8209 16.2799 34.7647L16.2864 34.732C16.3044 34.6786 16.3251 34.6301 16.3485 34.5865C16.3719 34.543 16.3986 34.5063 16.4286 34.4763C16.4587 34.4464 16.4926 34.4254 16.5304 34.4132C16.5682 34.4011 16.6103 34.3996 16.6567 34.4088C16.7073 34.4188 16.7494 34.4373 16.7829 34.4641C16.8169 34.4905 16.8428 34.5237 16.8605 34.5636C16.8787 34.6031 16.8889 34.6479 16.8913 34.698C16.8942 34.7478 16.8899 34.8013 16.8786 34.8585ZM16.6713 34.8328L16.6742 34.8179C16.6804 34.7867 16.6839 34.7569 16.6846 34.7285C16.6859 34.6998 16.6832 34.6739 16.6764 34.6509C16.6698 34.6275 16.6582 34.6077 16.6417 34.5917C16.6257 34.5757 16.6031 34.5648 16.5737 34.559C16.5458 34.5534 16.5212 34.5535 16.5 34.5591C16.4787 34.5647 16.46 34.5747 16.4438 34.5892C16.4281 34.6038 16.4149 34.6223 16.404 34.6448C16.3933 34.6667 16.3844 34.6915 16.3775 34.7191L16.359 34.8121C16.353 34.8497 16.3526 34.8841 16.3577 34.9151C16.3634 34.9457 16.376 34.9716 16.3954 34.9926C16.4154 35.0133 16.4438 35.0273 16.4807 35.0346C16.5096 35.0404 16.5346 35.0395 16.5558 35.0319C16.5769 35.0243 16.5948 35.0111 16.6093 34.9924C16.6243 34.9737 16.6368 34.9508 16.6466 34.9238C16.6564 34.8962 16.6647 34.8659 16.6713 34.8328Z" fill="white"/>
    <path d="M18.1359 35.2819L18.1695 34.9349C18.1719 34.9099 18.1699 34.8881 18.1634 34.8696C18.157 34.8506 18.1457 34.8352 18.1294 34.8234C18.1136 34.8117 18.0922 34.8046 18.0653 34.802C18.0423 34.7997 18.022 34.8019 18.0044 34.8084C17.9868 34.8145 17.9728 34.8245 17.9622 34.8385C17.9517 34.852 17.9455 34.8686 17.9436 34.8883L17.7362 34.8683C17.7394 34.8351 17.7502 34.8044 17.7684 34.7762C17.7866 34.7479 17.8115 34.7239 17.843 34.7042C17.8745 34.6839 17.911 34.6693 17.9526 34.6603C17.9946 34.6512 18.0409 34.6492 18.0913 34.654C18.1517 34.6599 18.2045 34.6752 18.2496 34.6999C18.2947 34.7246 18.3288 34.7584 18.3517 34.8013C18.3752 34.8443 18.384 34.896 18.3782 34.9565L18.3459 35.2899C18.3418 35.3326 18.341 35.3679 18.3437 35.3958C18.3464 35.4231 18.3518 35.4474 18.3599 35.4685L18.3587 35.4808L18.1492 35.4605C18.1411 35.4384 18.136 35.4113 18.1338 35.3791C18.1321 35.3465 18.1328 35.3141 18.1359 35.2819ZM18.1922 34.9858L18.1823 35.1033L18.0664 35.092C18.039 35.0894 18.0149 35.0902 17.9942 35.0945C17.9734 35.0988 17.956 35.1061 17.9419 35.1163C17.9279 35.1261 17.917 35.1382 17.9093 35.1524C17.9021 35.1668 17.8977 35.1828 17.896 35.2006C17.8943 35.2183 17.8968 35.2348 17.9035 35.25C17.9104 35.2647 17.9211 35.2769 17.9356 35.2865C17.9502 35.2957 17.9679 35.3013 17.9885 35.3033C18.0197 35.3063 18.0474 35.3027 18.0717 35.2924C18.0959 35.2822 18.1152 35.2685 18.1294 35.2515C18.1441 35.2345 18.1525 35.2179 18.1546 35.2016L18.2008 35.2947C18.1912 35.3137 18.1787 35.333 18.1632 35.3529C18.1482 35.3727 18.1297 35.3911 18.1078 35.4078C18.0858 35.4241 18.0601 35.4369 18.0307 35.4462C18.0012 35.4549 17.9671 35.4574 17.9282 35.4537C17.8787 35.4489 17.8348 35.4347 17.7964 35.4111C17.7585 35.3871 17.7295 35.3565 17.7094 35.3192C17.6897 35.2814 17.6821 35.24 17.6865 35.1948C17.6904 35.154 17.7016 35.1186 17.72 35.0884C17.7385 35.0582 17.7636 35.0337 17.7955 35.015C17.8278 34.9958 17.8671 34.9829 17.9133 34.9762C17.9595 34.9691 18.0124 34.9684 18.0719 34.9741L18.1922 34.9858Z" fill="white"/>
    <path d="M19.498 34.4405L19.4723 35.5514L19.2633 35.5465L19.289 34.4357L19.498 34.4405Z" fill="white"/>
    <path d="M20.7672 34.4977L21.158 34.4584C21.2381 34.4503 21.3082 34.4554 21.3682 34.4736C21.4287 34.4917 21.4769 34.5228 21.5128 34.5666C21.5487 34.6105 21.5701 34.6668 21.577 34.7354C21.5827 34.7915 21.5779 34.8407 21.5628 34.883C21.5481 34.9247 21.5248 34.9607 21.4929 34.991C21.4615 35.0209 21.4236 35.046 21.3791 35.0665L21.3144 35.1093L20.9746 35.1435L20.9563 34.9752L21.2089 34.9498C21.2468 34.946 21.2775 34.9361 21.3011 34.9202C21.3247 34.9042 21.3416 34.8836 21.3516 34.8584C21.3622 34.8331 21.3659 34.8046 21.3627 34.773C21.3593 34.7394 21.3501 34.711 21.3352 34.6877C21.3203 34.6645 21.2994 34.6477 21.2727 34.6373C21.246 34.6269 21.2134 34.6237 21.175 34.6275L21.0001 34.6451L21.0885 35.5239L20.8726 35.5456L20.7672 34.4977ZM21.4585 35.4867L21.1725 35.0436L21.4005 35.0192L21.6885 35.4534L21.6895 35.4635L21.4585 35.4867Z" fill="white"/>
    <path d="M22.8218 35.3161C22.7623 35.3282 22.7069 35.3296 22.6558 35.3203C22.6046 35.3105 22.5591 35.2919 22.5191 35.2646C22.4796 35.2371 22.4465 35.2028 22.4199 35.1614C22.3933 35.1196 22.3747 35.0731 22.3644 35.0221L22.3586 34.9937C22.3469 34.9356 22.3444 34.8807 22.3511 34.8292C22.3579 34.7776 22.3731 34.731 22.3966 34.6893C22.4206 34.6476 22.4529 34.6127 22.4935 34.5848C22.534 34.5564 22.5822 34.5366 22.6379 34.5253C22.6923 34.5143 22.7423 34.5135 22.788 34.5229C22.8337 34.5323 22.8741 34.5507 22.9092 34.5781C22.9447 34.6053 22.9745 34.6406 22.9985 34.684C23.0225 34.7268 23.0401 34.7764 23.0515 34.8326L23.0688 34.9177L22.4591 35.0413L22.4315 34.9052L22.8406 34.8223L22.8374 34.8067C22.8317 34.7783 22.8213 34.7541 22.8064 34.734C22.7919 34.7133 22.7731 34.6984 22.7501 34.6893C22.7271 34.6802 22.6998 34.6788 22.6681 34.6852C22.6412 34.6907 22.6192 34.7013 22.6022 34.717C22.5853 34.7328 22.5728 34.7525 22.5648 34.7763C22.5573 34.7999 22.5534 34.8268 22.5531 34.8569C22.5532 34.8864 22.5566 34.9182 22.5635 34.9522L22.5693 34.9806C22.5755 35.0113 22.5855 35.0388 22.5993 35.0631C22.6135 35.0872 22.6306 35.1071 22.6505 35.1228C22.6709 35.1383 22.6937 35.149 22.719 35.1547C22.7447 35.1603 22.7725 35.1601 22.8022 35.154C22.8391 35.1466 22.8719 35.1325 22.9007 35.1119C22.9299 35.0908 22.9531 35.0632 22.9703 35.0292L23.0914 35.1168C23.08 35.1433 23.0626 35.1699 23.039 35.1969C23.0159 35.2237 22.9863 35.2479 22.9504 35.2694C22.9143 35.2905 22.8714 35.3061 22.8218 35.3161Z" fill="white"/>
    <path d="M24.2469 34.1573L24.4273 34.1017L24.65 34.8249C24.671 34.8931 24.6736 34.9556 24.6578 35.0125C24.6426 35.0696 24.6118 35.1187 24.5654 35.1598C24.5191 35.2012 24.4603 35.233 24.3889 35.255C24.3575 35.2646 24.3231 35.2707 24.2855 35.2732C24.2484 35.2755 24.2112 35.2729 24.174 35.2651C24.1373 35.2573 24.1042 35.2432 24.0747 35.223L24.1264 35.0785C24.1576 35.0981 24.1908 35.1106 24.2257 35.116C24.2608 35.1218 24.2968 35.1191 24.3337 35.1077C24.3696 35.0967 24.398 35.0806 24.4188 35.0596C24.4397 35.039 24.4529 35.014 24.4585 34.9845C24.4642 34.9555 24.4616 34.9233 24.4506 34.8878L24.2808 34.3361L24.2469 34.1573ZM23.8615 34.6953L23.8571 34.6808C23.8395 34.6236 23.8304 34.5696 23.8299 34.5188C23.8297 34.4674 23.8373 34.4209 23.8528 34.3793C23.8687 34.3376 23.8925 34.3018 23.9241 34.2718C23.9558 34.2419 23.9951 34.2197 24.0421 34.2052C24.0919 34.1899 24.1365 34.1863 24.1758 34.1943C24.2151 34.2024 24.2509 34.2202 24.283 34.2476C24.315 34.2746 24.3441 34.3093 24.3703 34.3517C24.3968 34.3935 24.4219 34.4405 24.4456 34.4927L24.4553 34.5245C24.4645 34.5788 24.469 34.6303 24.4689 34.6793C24.4689 34.7283 24.4627 34.7731 24.4505 34.8137C24.4381 34.8538 24.418 34.8883 24.39 34.9171C24.3625 34.9457 24.3257 34.9671 24.2796 34.9813C24.2335 34.9955 24.1889 34.9989 24.1458 34.9915C24.1031 34.984 24.0633 34.9672 24.0266 34.9412C23.9898 34.9152 23.9572 34.8813 23.9287 34.8396C23.9007 34.7978 23.8783 34.7497 23.8615 34.6953ZM24.0562 34.6195L24.0606 34.634C24.0701 34.6649 24.082 34.6927 24.0962 34.7176C24.1105 34.7425 24.127 34.7634 24.1458 34.7803C24.165 34.7966 24.1858 34.8076 24.2082 34.8133C24.231 34.8184 24.2555 34.8169 24.2818 34.8089C24.3182 34.7976 24.3456 34.7809 24.3639 34.7586C24.3821 34.7358 24.3928 34.7091 24.396 34.6783C24.3991 34.6476 24.3962 34.6142 24.3871 34.5781L24.3592 34.4875C24.3493 34.4588 24.3374 34.434 24.3234 34.413C24.3092 34.3917 24.2934 34.3746 24.2758 34.3618C24.2583 34.3491 24.2382 34.3411 24.2155 34.338C24.1928 34.3349 24.1679 34.3375 24.1407 34.3459C24.1145 34.354 24.0935 34.367 24.0778 34.385C24.0625 34.4023 24.0515 34.4231 24.0448 34.4474C24.0386 34.4715 24.0365 34.4983 24.0386 34.528C24.0405 34.5572 24.0464 34.5877 24.0562 34.6195Z" fill="white"/>
    <path d="M25.4267 33.7547L25.7126 34.4833L25.518 34.5597L25.2321 33.8311L25.4267 33.7547ZM25.1455 33.646C25.1344 33.6177 25.1351 33.5905 25.1476 33.5643C25.1601 33.5382 25.183 33.5186 25.2162 33.5055C25.249 33.4927 25.2789 33.4916 25.3059 33.5022C25.3333 33.5127 25.3526 33.5321 25.3637 33.5604C25.3747 33.5886 25.3738 33.616 25.3608 33.6423C25.3483 33.6684 25.3257 33.688 25.2929 33.7008C25.2597 33.7138 25.2296 33.715 25.2026 33.7044C25.1756 33.6937 25.1566 33.6743 25.1455 33.646Z" fill="white"/>
    <path d="M26.4671 33.9341C26.4606 33.9206 26.4509 33.9103 26.4379 33.9031C26.4249 33.896 26.4055 33.8929 26.3798 33.8939C26.3544 33.8943 26.32 33.9 26.2766 33.9111C26.2372 33.9203 26.1992 33.9263 26.1627 33.9293C26.1264 33.9317 26.0929 33.9297 26.0622 33.9235C26.0319 33.9172 26.0049 33.9054 25.9813 33.8884C25.9575 33.8709 25.9384 33.8471 25.9241 33.8171C25.91 33.7875 25.903 33.7566 25.9032 33.7245C25.9038 33.6921 25.9113 33.6602 25.9257 33.6288C25.9403 33.5967 25.9623 33.5667 25.9917 33.5388C26.0214 33.5102 26.0582 33.4855 26.1022 33.4645C26.1636 33.4353 26.2209 33.4199 26.2742 33.4186C26.328 33.417 26.3748 33.4278 26.4147 33.451C26.4548 33.4735 26.4852 33.5066 26.506 33.5501L26.3179 33.6397C26.3092 33.6215 26.2975 33.607 26.2828 33.5964C26.2684 33.5851 26.2511 33.5792 26.2311 33.5786C26.2113 33.5773 26.1887 33.5827 26.1635 33.5948C26.1426 33.6047 26.1263 33.617 26.1146 33.6317C26.1027 33.6459 26.0955 33.6611 26.093 33.6773C26.0908 33.6927 26.0931 33.7077 26.0999 33.722C26.1051 33.7329 26.112 33.7417 26.1205 33.7483C26.1292 33.7543 26.1405 33.7583 26.1542 33.7603C26.168 33.7622 26.1846 33.7623 26.204 33.7606C26.2237 33.7581 26.2471 33.7534 26.2742 33.7463C26.3301 33.7325 26.3821 33.7245 26.4303 33.7224C26.4782 33.7199 26.5208 33.7274 26.558 33.7449C26.595 33.762 26.6245 33.7936 26.6465 33.8397C26.6614 33.8711 26.6682 33.9031 26.6667 33.9359C26.6652 33.9686 26.6561 34.001 26.6393 34.0331C26.6223 34.0647 26.5981 34.0947 26.5667 34.123C26.5356 34.1506 26.4974 34.1753 26.4521 34.1969C26.3864 34.2282 26.325 34.243 26.2681 34.2413C26.2116 34.2394 26.163 34.2259 26.1223 34.201C26.0818 34.1754 26.0524 34.1435 26.0342 34.1052L26.2124 34.0202C26.2255 34.0455 26.2419 34.063 26.2616 34.0729C26.2817 34.0826 26.303 34.0863 26.3254 34.0841C26.3483 34.0818 26.3711 34.0752 26.3938 34.0644C26.4181 34.0528 26.4368 34.0399 26.4498 34.0256C26.4626 34.011 26.4704 33.996 26.4733 33.9808C26.4764 33.9649 26.4743 33.9493 26.4671 33.9341Z" fill="white"/>
    <path d="M27.5186 32.7547L27.5918 32.8829L27.1961 33.1089L27.1229 32.9807L27.5186 32.7547ZM27.1251 32.757L27.306 32.6537L27.673 33.2963C27.6842 33.316 27.6954 33.3297 27.7064 33.3373C27.7178 33.3446 27.7299 33.3474 27.7428 33.3456C27.7554 33.3434 27.7697 33.3378 27.7856 33.3287C27.7969 33.3222 27.8067 33.3161 27.815 33.3102C27.8235 33.3037 27.8305 33.298 27.8361 33.2932L27.9128 33.426C27.9002 33.4398 27.8857 33.4534 27.8693 33.4666C27.853 33.4798 27.834 33.4926 27.8122 33.5051C27.7724 33.5278 27.7339 33.5412 27.6968 33.5452C27.6598 33.5485 27.625 33.54 27.5924 33.5198C27.5597 33.4996 27.5297 33.4656 27.5025 33.4179L27.1251 32.757Z" fill="white"/>
    <path d="M28.1587 32.5675L28.4891 33.0826L28.3138 33.1951L27.8912 32.5362L28.0562 32.4304L28.1587 32.5675ZM28.2623 32.2922L28.3636 32.4567C28.3543 32.461 28.3432 32.4666 28.3306 32.4736C28.318 32.4799 28.3069 32.4862 28.2971 32.4925C28.2723 32.5083 28.2529 32.5254 28.2388 32.5436C28.2249 32.5611 28.2157 32.5799 28.2113 32.5999C28.2074 32.6196 28.2079 32.6402 28.2131 32.6615C28.2186 32.6826 28.2281 32.7046 28.2416 32.7275L28.1992 32.7391C28.1719 32.6965 28.151 32.6546 28.1366 32.6134C28.122 32.5718 28.1142 32.5324 28.1133 32.4952C28.1127 32.4578 28.1197 32.424 28.1343 32.3941C28.1489 32.3641 28.1716 32.3392 28.2024 32.3194C28.2122 32.3132 28.2227 32.3076 28.2338 32.3027C28.2448 32.2974 28.2543 32.2939 28.2623 32.2922Z" fill="white"/>
    <path d="M29.1239 32.5576L28.8734 31.8774L29.0522 31.7433L29.3408 32.6526C29.3473 32.6725 29.3527 32.695 29.357 32.72C29.3617 32.7448 29.3625 32.7711 29.3592 32.7989C29.3566 32.8268 29.3476 32.8546 29.3323 32.8824C29.3173 32.9099 29.2933 32.936 29.2601 32.9609C29.2443 32.9728 29.2306 32.9815 29.2191 32.9871C29.2077 32.9927 29.1937 32.999 29.1772 33.0059L29.0856 32.8838C29.0898 32.8806 29.0943 32.8773 29.0989 32.8738C29.1038 32.8707 29.1084 32.8676 29.1127 32.8644C29.1346 32.8479 29.1507 32.832 29.1608 32.8165C29.171 32.8011 29.1764 32.785 29.177 32.7682C29.178 32.7518 29.1749 32.7336 29.1678 32.7137L29.1239 32.5576ZM28.6378 32.0541L29.1141 32.4058L29.2702 32.5645L29.1659 32.6617L28.459 32.1882L28.6378 32.0541Z" fill="white"/>
    <path d="M30.5176 31.0644L30.5068 31.0537C30.4661 31.0133 30.4344 30.9702 30.4117 30.9246C30.3887 30.8787 30.3755 30.832 30.3723 30.7846C30.3691 30.7372 30.3766 30.6903 30.3948 30.6439C30.4127 30.5971 30.4426 30.5526 30.4844 30.5105C30.5261 30.4685 30.5705 30.4381 30.6175 30.4195C30.6642 30.4006 30.7112 30.3926 30.7586 30.3955C30.8064 30.398 30.8533 30.4107 30.8994 30.4333C30.9452 30.4557 30.9884 30.4871 31.0292 30.5275L31.04 30.5382C31.0803 30.5783 31.112 30.6213 31.1351 30.6673C31.1577 30.7129 31.1707 30.7597 31.1739 30.8078C31.1772 30.8552 31.1697 30.9021 31.1514 30.9485C31.1332 30.995 31.1032 31.0392 31.0614 31.0813C31.0196 31.1234 30.9754 31.1539 30.9287 31.1729C30.8824 31.1915 30.8354 31.1995 30.7876 31.1969C30.7399 31.1937 30.6931 31.1809 30.6473 31.1586C30.6012 31.1359 30.558 31.1045 30.5176 31.0644ZM30.6536 30.9058L30.6643 30.9165C30.6876 30.9396 30.7114 30.9592 30.7357 30.9751C30.7599 30.991 30.7842 31.0022 30.8084 31.0086C30.8326 31.0143 30.8563 31.0141 30.8795 31.0078C30.9027 31.0016 30.9248 30.9879 30.9459 30.9667C30.9662 30.9461 30.9795 30.9243 30.9855 30.9011C30.9916 30.8778 30.9915 30.8543 30.9853 30.8305C30.9787 30.8063 30.9674 30.7821 30.9512 30.758C30.9355 30.7335 30.9159 30.7097 30.8927 30.6866L30.8819 30.6759C30.8593 30.6534 30.8359 30.6346 30.8116 30.6193C30.7873 30.6034 30.7629 30.5924 30.7383 30.5864C30.7138 30.5796 30.6897 30.5792 30.6662 30.5851C30.6427 30.591 30.6206 30.6043 30.5999 30.6252C30.5791 30.6461 30.5659 30.6683 30.5602 30.6919C30.5548 30.7151 30.5554 30.7391 30.562 30.764C30.5686 30.7882 30.5799 30.8123 30.596 30.8365C30.6118 30.8603 30.631 30.8834 30.6536 30.9058Z" fill="white"/>
    <path d="M32.0546 30.0047L31.918 30.1639L31.2712 29.6091C31.2262 29.5704 31.1959 29.5292 31.1802 29.4852C31.1645 29.4406 31.1626 29.3954 31.1745 29.3497C31.1863 29.3033 31.2114 29.2578 31.2497 29.2131C31.2622 29.1985 31.2754 29.1853 31.2892 29.1737C31.3027 29.1617 31.3164 29.1506 31.3303 29.1403L31.448 29.2441C31.4402 29.2495 31.4327 29.2557 31.4253 29.2628C31.418 29.2699 31.41 29.2785 31.4012 29.2888C31.3848 29.3078 31.3742 29.3269 31.3691 29.3461C31.364 29.3646 31.3647 29.3827 31.3712 29.4003C31.3777 29.4179 31.3899 29.4345 31.4078 29.4498L32.0546 30.0047ZM31.5623 29.3765L31.6743 29.4726L31.3601 29.8388L31.2481 29.7427L31.5623 29.3765Z" fill="white"/>
    <path d="M32.949 28.3872C32.9334 28.3768 32.9177 28.3698 32.9021 28.3663C32.8863 28.3622 32.8691 28.3628 32.8503 28.3683C32.8312 28.3735 32.8089 28.3839 32.7835 28.3994C32.7581 28.4149 32.7278 28.4367 32.6928 28.4649C32.6534 28.4961 32.6138 28.5241 32.5739 28.5491C32.5343 28.5737 32.4948 28.5925 32.4553 28.6056C32.4157 28.618 32.3765 28.6225 32.3376 28.6192C32.2989 28.6154 32.2607 28.6009 32.223 28.5758C32.1865 28.5514 32.1588 28.5213 32.1398 28.4854C32.1205 28.4493 32.1098 28.4097 32.1078 28.3666C32.1054 28.3233 32.1115 28.2781 32.1261 28.231C32.141 28.1835 32.1643 28.1361 32.1959 28.0888C32.239 28.0242 32.2882 27.9756 32.3436 27.943C32.399 27.9105 32.4558 27.8944 32.514 27.895C32.5724 27.8952 32.6277 27.9127 32.6799 27.9475L32.5602 28.1268C32.5345 28.1096 32.5084 28.1001 32.4819 28.098C32.4553 28.0953 32.4292 28.1011 32.4035 28.1152C32.3781 28.129 32.3545 28.1521 32.3328 28.1846C32.3119 28.2159 32.2993 28.2452 32.295 28.2725C32.2903 28.2995 32.2925 28.3235 32.3016 28.3447C32.3103 28.3656 32.3245 28.3825 32.3441 28.3957C32.359 28.4056 32.3748 28.4109 32.3917 28.4118C32.4088 28.4122 32.4275 28.4084 32.4478 28.4006C32.4682 28.3927 32.4902 28.381 32.5139 28.3655C32.5376 28.35 32.5633 28.3309 32.5912 28.3084C32.6375 28.2703 32.6817 28.2392 32.7238 28.2152C32.7662 28.1907 32.8069 28.1737 32.8456 28.1643C32.8844 28.1548 32.9222 28.1534 32.959 28.1599C32.9958 28.1665 33.0322 28.1818 33.0683 28.2059C33.1064 28.2314 33.1356 28.2616 33.1557 28.2965C33.1759 28.3314 33.187 28.3699 33.1892 28.4119C33.1913 28.4539 33.1848 28.4979 33.1696 28.5441C33.1545 28.5902 33.1308 28.6373 33.0987 28.6855C33.0698 28.7288 33.0356 28.7678 32.9963 28.8024C32.9566 28.8367 32.9135 28.8634 32.8672 28.8823C32.8212 28.9009 32.7733 28.9084 32.7236 28.9047C32.6738 28.9011 32.6243 28.8828 32.5749 28.8498L32.6958 28.6688C32.7231 28.687 32.749 28.6982 32.7735 28.7023C32.7979 28.7065 32.8211 28.7048 32.8429 28.6973C32.865 28.6895 32.8857 28.6766 32.9051 28.6589C32.9248 28.6407 32.9432 28.6188 32.9603 28.5931C32.9812 28.5618 32.9939 28.5332 32.9985 28.5072C33.0033 28.4809 33.0011 28.4577 32.9919 28.4376C32.983 28.4172 32.9687 28.4004 32.949 28.3872Z" fill="white"/>
    <path d="M33.9286 27.3567C33.9 27.4103 33.8659 27.4539 33.8262 27.4874C33.7861 27.5206 33.7428 27.544 33.6963 27.5575C33.65 27.5705 33.6024 27.5742 33.5536 27.5684C33.5043 27.5624 33.4567 27.5471 33.4108 27.5226L33.3852 27.509C33.3329 27.4812 33.2889 27.4482 33.2535 27.4102C33.218 27.3722 33.1916 27.3308 33.1744 27.2862C33.1575 27.2411 33.1511 27.194 33.1554 27.1449C33.1593 27.0956 33.1746 27.0458 33.2013 26.9956C33.2274 26.9466 33.2586 26.9075 33.2949 26.8783C33.3313 26.849 33.3712 26.8295 33.4146 26.8198C33.4582 26.8098 33.5044 26.8092 33.5531 26.8182C33.6014 26.827 33.6509 26.8449 33.7016 26.8719L33.7782 26.9127L33.4858 27.4618L33.3632 27.3965L33.5594 27.0281L33.5453 27.0206C33.5198 27.007 33.4945 26.9996 33.4695 26.9983C33.4443 26.9963 33.4209 27.0013 33.3992 27.0133C33.3776 27.0253 33.3592 27.0455 33.344 27.074C33.331 27.0983 33.3253 27.122 33.3266 27.1451C33.328 27.1682 33.3353 27.1904 33.3485 27.2117C33.362 27.2325 33.3803 27.2526 33.4033 27.272C33.4261 27.2907 33.4528 27.3082 33.4835 27.3245L33.509 27.3381C33.5367 27.3528 33.5643 27.3626 33.5918 27.3674C33.6195 27.3718 33.6457 27.3713 33.6704 27.3659C33.6954 27.36 33.7181 27.3492 33.7386 27.3333C33.7593 27.317 33.7768 27.2955 33.7911 27.2687C33.8087 27.2355 33.8188 27.2012 33.8212 27.1659C33.8234 27.1299 33.8169 27.0945 33.8016 27.0596L33.9463 27.0218C33.9594 27.0474 33.9689 27.0779 33.9747 27.1132C33.9807 27.1481 33.9805 27.1863 33.9743 27.2277C33.9676 27.269 33.9524 27.312 33.9286 27.3567Z" fill="white"/>
    <path d="M33.984 25.8453L34.544 26.0921L34.46 26.2828L33.7438 25.9671L33.8228 25.7877L33.984 25.8453ZM33.9183 25.5586L34.0935 25.6398C34.0881 25.6485 34.0821 25.6593 34.0753 25.6721C34.0684 25.6844 34.0626 25.6958 34.0579 25.7063C34.046 25.7333 34.0393 25.7582 34.0376 25.7812C34.0356 25.8035 34.0384 25.8242 34.0458 25.8433C34.0534 25.8619 34.0652 25.8787 34.0813 25.8937C34.0975 25.9083 34.1176 25.9213 34.1415 25.9329L34.1126 25.966C34.0663 25.9456 34.0258 25.9222 33.991 25.8958C33.9558 25.8693 33.9275 25.8407 33.9062 25.8102C33.885 25.7793 33.8723 25.7473 33.8678 25.7143C33.8634 25.6813 33.8686 25.648 33.8834 25.6144C33.8881 25.6038 33.8937 25.5934 33.9003 25.5832C33.9065 25.5727 33.9125 25.5645 33.9183 25.5586Z" fill="white"/>
    <path d="M34.7435 25.2266L34.2068 24.8525L34.2795 24.6472L34.9292 25.1573L34.8853 25.2814L34.7435 25.2266ZM34.1091 25.1286L34.7626 25.175L34.9063 25.222L34.8621 25.3468L34.0362 25.3346L34.1091 25.1286Z" fill="white"/>
    <path d="M34.5846 23.6872L35.3392 23.8948L35.2838 24.0963L34.5291 23.8888L34.5846 23.6872ZM34.329 23.8472C34.2997 23.8391 34.2783 23.8223 34.2649 23.7966C34.2515 23.7709 34.2495 23.7408 34.2589 23.7064C34.2683 23.6725 34.2853 23.6479 34.31 23.6327C34.3348 23.617 34.3619 23.6132 34.3911 23.6212C34.4204 23.6293 34.4417 23.6464 34.4551 23.6726C34.4685 23.6983 34.4705 23.7281 34.4612 23.762C34.4517 23.7964 34.4347 23.8213 34.41 23.8365C34.3853 23.8517 34.3583 23.8553 34.329 23.8472Z" fill="white"/>
    <path d="M35.4271 22.942C35.432 22.917 35.4316 22.8938 35.4259 22.8725C35.4197 22.8512 35.4089 22.8334 35.3935 22.8191C35.3778 22.8042 35.3579 22.7942 35.3338 22.789L35.3713 22.5966C35.4251 22.6076 35.4704 22.6314 35.507 22.668C35.5431 22.7045 35.5686 22.749 35.5834 22.8015C35.5978 22.8539 35.5992 22.9097 35.5877 22.9689C35.5761 23.0285 35.556 23.0787 35.5274 23.1193C35.499 23.1594 35.4644 23.1908 35.4236 23.2133C35.3824 23.2357 35.337 23.2497 35.2872 23.2553C35.237 23.2608 35.185 23.2582 35.131 23.2477L35.1104 23.2437C35.056 23.2331 35.0068 23.2159 34.9627 23.1921C34.9183 23.1682 34.8814 23.1382 34.8521 23.102C34.8223 23.0658 34.8017 23.0237 34.7904 22.9758C34.7791 22.9279 34.7792 22.8744 34.7907 22.8152C34.803 22.7522 34.8258 22.6994 34.8591 22.6568C34.8926 22.6137 34.9344 22.583 34.9847 22.5648C35.0345 22.546 35.09 22.5423 35.1512 22.5537L35.1137 22.7462C35.088 22.7417 35.0638 22.7426 35.0409 22.7489C35.0182 22.7548 34.9987 22.7663 34.9827 22.7833C34.9662 22.7997 34.9552 22.8219 34.9498 22.8499C34.944 22.8797 34.9456 22.9053 34.9547 22.9267C34.9633 22.9481 34.9775 22.966 34.9973 22.9807C35.0166 22.9953 35.0395 23.0073 35.0661 23.0169C35.0924 23.026 35.1204 23.0334 35.1502 23.0392L35.1708 23.0432C35.2006 23.049 35.2296 23.0527 35.2578 23.0543C35.286 23.0558 35.3118 23.0535 35.3351 23.0472C35.3585 23.0405 35.3783 23.0288 35.3942 23.0123C35.4102 22.9958 35.4212 22.9723 35.4271 22.942Z" fill="white"/>
    <path d="M35.8432 21.4248C35.8374 21.4853 35.8225 21.5386 35.7987 21.5848C35.7744 21.6309 35.7433 21.669 35.7055 21.6993C35.6677 21.7291 35.6252 21.7506 35.5779 21.764C35.5301 21.7773 35.4803 21.7814 35.4284 21.7764L35.3996 21.7736C35.3406 21.7679 35.2874 21.7543 35.2401 21.7328C35.1927 21.7112 35.1526 21.6831 35.1196 21.6484C35.0866 21.6133 35.0627 21.5722 35.0479 21.5252C35.0326 21.4782 35.0277 21.4264 35.0331 21.3697C35.0385 21.3145 35.0523 21.2665 35.0747 21.2255C35.0971 21.1845 35.1265 21.1513 35.1628 21.1257C35.1993 21.0997 35.2417 21.0815 35.2902 21.0712C35.3382 21.0608 35.3908 21.0584 35.4479 21.0639L35.5343 21.0723L35.4744 21.6915L35.3362 21.6781L35.3764 21.2627L35.3605 21.2611C35.3317 21.2583 35.3055 21.2611 35.2819 21.2695C35.2579 21.2774 35.2382 21.291 35.2228 21.3103C35.2073 21.3296 35.1981 21.3554 35.1949 21.3876C35.1923 21.4149 35.196 21.439 35.2061 21.4599C35.2162 21.4807 35.2315 21.4984 35.2519 21.513C35.2723 21.5271 35.2969 21.5386 35.3255 21.5477C35.3538 21.5563 35.3852 21.5622 35.4197 21.5656L35.4485 21.5683C35.4797 21.5714 35.509 21.5698 35.5362 21.5637C35.5635 21.5572 35.5875 21.5466 35.6083 21.5322C35.6291 21.5172 35.6459 21.4985 35.6588 21.476C35.6717 21.453 35.6796 21.4264 35.6825 21.3962C35.6861 21.3587 35.6823 21.3232 35.671 21.2897C35.6593 21.2556 35.6397 21.2254 35.6122 21.199L35.7314 21.1088C35.7533 21.1274 35.7737 21.1519 35.7926 21.1823C35.8115 21.2122 35.826 21.2475 35.8361 21.2882C35.8457 21.3289 35.8481 21.3744 35.8432 21.4248Z" fill="white"/>
    <path d="M35.5462 18.9169L35.5611 19.1849L35.3921 19.1943L35.3772 18.9263C35.3749 18.8849 35.3663 18.8516 35.3513 18.8263C35.3359 18.8011 35.3156 18.7831 35.2904 18.7725C35.2652 18.7618 35.2371 18.7573 35.2063 18.759C35.175 18.7608 35.1462 18.7684 35.1199 18.7819C35.0936 18.7955 35.073 18.8157 35.0581 18.8426C35.0432 18.8695 35.0369 18.9037 35.0392 18.9451L35.0499 19.1379L35.9318 19.0889L35.9438 19.3056L34.8922 19.3641L34.8694 18.9545C34.8649 18.8722 34.8759 18.8008 34.9024 18.7404C34.9285 18.6796 34.9667 18.632 35.017 18.5979C35.0672 18.5637 35.1258 18.5447 35.1927 18.541C35.2606 18.5372 35.3202 18.5496 35.3716 18.5781C35.4229 18.6067 35.4637 18.6498 35.494 18.7075C35.5242 18.7648 35.5416 18.8346 35.5462 18.9169Z" fill="white"/>
    <path d="M35.2032 17.6477L35.8101 17.5691L35.8368 17.7757L35.0606 17.8762L35.0354 17.6818L35.2032 17.6477ZM34.9986 17.4364L35.1906 17.4152C35.1904 17.4254 35.1908 17.4377 35.1917 17.4522C35.1921 17.4663 35.193 17.479 35.1945 17.4905C35.1983 17.5197 35.2054 17.5445 35.2158 17.5651C35.2257 17.5852 35.2388 17.6015 35.255 17.614C35.2711 17.626 35.2899 17.6342 35.3114 17.6388C35.3329 17.6428 35.3568 17.6436 35.3832 17.6411L35.3757 17.6844C35.3255 17.6909 35.2787 17.6919 35.2353 17.6873C35.1914 17.6827 35.1525 17.673 35.1184 17.6579C35.0843 17.6424 35.0568 17.6216 35.036 17.5956C35.0151 17.5696 35.0023 17.5385 34.9976 17.5021C34.9961 17.4907 34.9956 17.4788 34.9959 17.4666C34.9958 17.4545 34.9967 17.4444 34.9986 17.4364Z" fill="white"/>
    <path d="M35.3688 17.0814L35.354 17.0844C35.2977 17.096 35.2444 17.0986 35.1938 17.0922C35.1428 17.086 35.0967 17.0711 35.0554 17.0476C35.0141 17.024 34.9792 16.9918 34.9506 16.9509C34.9216 16.9101 34.9011 16.8607 34.8891 16.8026C34.8772 16.7445 34.8765 16.6907 34.887 16.6413C34.8971 16.592 34.9164 16.5483 34.9451 16.5105C34.9736 16.4721 35.0101 16.44 35.0545 16.4141C35.0984 16.3884 35.1485 16.3697 35.2047 16.3581L35.2196 16.3551C35.2753 16.3436 35.3287 16.341 35.3797 16.3473C35.4303 16.3536 35.4765 16.3688 35.5183 16.3927C35.5596 16.4162 35.5945 16.4484 35.6231 16.4893C35.6517 16.5302 35.6719 16.5797 35.6839 16.6378C35.6958 16.6959 35.6967 16.7496 35.6867 16.7989C35.6766 16.8478 35.6572 16.8914 35.6287 16.9298C35.5995 16.9678 35.563 16.9996 35.5191 17.0254C35.4747 17.0513 35.4246 17.0699 35.3688 17.0814ZM35.312 16.8804L35.3269 16.8773C35.359 16.8707 35.3884 16.8617 35.4151 16.8503C35.4419 16.8389 35.4646 16.8249 35.4833 16.8082C35.5015 16.7912 35.5144 16.7713 35.522 16.7486C35.5296 16.7259 35.5305 16.6998 35.5244 16.6706C35.5186 16.6422 35.5077 16.6191 35.4917 16.6012C35.4757 16.5833 35.4561 16.5704 35.4328 16.5624C35.409 16.5545 35.3826 16.5505 35.3536 16.5506C35.3244 16.5502 35.2938 16.5533 35.2617 16.5599L35.2468 16.5629C35.2156 16.5693 35.187 16.5784 35.1608 16.5902C35.1341 16.6016 35.1114 16.6158 35.0928 16.633C35.0736 16.6497 35.06 16.6695 35.0518 16.6923C35.0437 16.7152 35.0426 16.741 35.0486 16.7698C35.0545 16.7986 35.0657 16.8219 35.0821 16.8397C35.0985 16.857 35.1188 16.8698 35.1432 16.8781C35.167 16.886 35.1934 16.89 35.2224 16.8899C35.251 16.89 35.2808 16.8868 35.312 16.8804Z" fill="white"/>
    <path d="M35.1847 15.2246L34.5308 15.2462L34.4662 15.0383L35.292 15.058L35.3311 15.1837L35.1847 15.2246ZM34.6179 15.526L35.1691 15.1719L35.3124 15.1236L35.3517 15.25L34.6828 15.7346L34.6179 15.526Z" fill="white"/>
    <path d="M34.1201 14.0483L34.8483 13.7614L34.925 13.9559L34.1968 14.2428L34.1201 14.0483ZM34.0117 14.3297C33.9835 14.3409 33.9563 14.3402 33.9301 14.3277C33.9039 14.3152 33.8843 14.2924 33.8712 14.2592C33.8583 14.2264 33.8571 14.1965 33.8678 14.1695C33.8782 14.1421 33.8975 14.1228 33.9258 14.1117C33.9541 14.1005 33.9814 14.1014 34.0077 14.1144C34.0339 14.1269 34.0535 14.1495 34.0664 14.1822C34.0795 14.2155 34.0807 14.2455 34.0701 14.2725C34.0595 14.2995 34.04 14.3186 34.0117 14.3297Z" fill="white"/>
    <path d="M34.2817 12.8676L33.4348 13.2763L33.3436 13.0874L34.3442 12.6044L34.4263 12.7745L34.2817 12.8676ZM34.3065 13.405L34.2928 13.4116C34.239 13.4376 34.1872 13.4551 34.1374 13.4641C34.0873 13.4733 34.0407 13.4738 33.9976 13.4657C33.9546 13.4575 33.9161 13.4405 33.8822 13.4146C33.8483 13.3887 33.8207 13.3538 33.7996 13.3099C33.7796 13.2686 33.7709 13.2284 33.7734 13.1892C33.7757 13.1495 33.7877 13.1111 33.8093 13.0738C33.8303 13.0364 33.8593 13.0005 33.8962 12.966C33.9327 12.9318 33.9752 12.8993 34.0235 12.8685L34.0534 12.854C34.1054 12.8364 34.1558 12.8242 34.2044 12.8173C34.253 12.8104 34.2985 12.8104 34.3409 12.8173C34.3827 12.8239 34.4198 12.8387 34.4522 12.8615C34.4847 12.8844 34.511 12.9167 34.5311 12.9584C34.5523 13.0023 34.5623 13.0457 34.561 13.0886C34.5596 13.131 34.5484 13.1718 34.5276 13.2107C34.5066 13.2492 34.4773 13.2851 34.4397 13.3182C34.4022 13.3513 34.3578 13.3802 34.3065 13.405ZM34.2023 13.224L34.2159 13.2174C34.245 13.2033 34.2711 13.188 34.2942 13.1715C34.3171 13.1546 34.3358 13.1362 34.3503 13.1164C34.3642 13.0963 34.3725 13.0751 34.3752 13.053C34.3772 13.0306 34.3722 13.007 34.3603 12.9822C34.3448 12.9501 34.3248 12.9271 34.3004 12.9131C34.2756 12.8994 34.2478 12.8933 34.2169 12.8948C34.1858 12.8959 34.1531 12.9036 34.1189 12.918L34.0335 12.9592C34.0068 12.9737 33.9841 12.9895 33.9656 13.0065C33.9463 13.0232 33.9319 13.0415 33.9221 13.0612C33.9121 13.0805 33.9071 13.1011 33.907 13.1231C33.9067 13.1447 33.9123 13.1674 33.9238 13.1913C33.9356 13.2156 33.9513 13.2337 33.971 13.2456C33.9902 13.2578 34.012 13.2647 34.0363 13.2663C34.0605 13.2675 34.0868 13.2644 34.1154 13.257C34.1433 13.2495 34.1723 13.2384 34.2023 13.224Z" fill="white"/>
  </g>
  <defs>
    <clipPath id="clip0_1344_49998">
      <rect width="40" height="40" fill="white"/>
    </clipPath>
  </defs>
</svg>
