<svg width="140" height="40" fill="none" xmlns="http://www.w3.org/2000/svg"><path d="M135.022 40H4.905a5.02 5.02 0 0 1-3.462-1.391A4.666 4.666 0 0 1 0 35.27V4.73C0 2.13 2.199 0 4.905 0h130.117c1.308 0 2.563.496 3.495 1.381A4.72 4.72 0 0 1 140 4.73v30.54a4.72 4.72 0 0 1-1.483 3.349A5.076 5.076 0 0 1 135.022 40Z" fill="#000"/><path d="M139 35.2c0 2.1-1.764 3.8-3.974 3.8H4.974C2.795 39 1 37.3 1 35.2V4.8C1 2.7 2.785 1 4.974 1h130.052a4.072 4.072 0 0 1 1.518.28c.482.19.921.47 1.29.822.37.354.663.774.863 1.237.2.463.303.96.303 1.461v30.4Z" fill="#000"/><path d="M49.455 27.032H44.83L43.7 30.12h-2.038l4.532-11.556h1.928l4.642 11.556H50.63l-1.176-3.09Zm-4.045-1.568h3.45l-1.24-3.309a17.313 17.313 0 0 1-.501-1.52c-.157.485-.314.987-.486 1.505l-1.223 3.324Zm8.263-1.835c0-.643-.016-1.333-.063-2.101h1.85c.063.36.11.721.142 1.098.768-.832 1.646-1.255 2.634-1.255.58 0 1.113.141 1.6.44.485.281.877.752 1.191 1.379.298.627.455 1.427.455 2.383 0 1.004-.173 1.866-.518 2.572-.345.706-.815 1.254-1.442 1.615-.612.36-1.333.549-2.133.549-.58 0-1.16-.094-1.725-.298v3.544l-1.975.172-.016-10.098Zm5.174 4.406c.408-.533.596-1.333.596-2.368 0-.956-.172-1.662-.501-2.1-.33-.44-.769-.644-1.333-.644-.377 0-.737.095-1.067.267a4.35 4.35 0 0 0-.925.721v4.61a3.276 3.276 0 0 0 1.458.314c.785 0 1.38-.267 1.772-.8Zm3.873-4.406c0-.643-.015-1.333-.062-2.101h1.85c.063.36.11.721.142 1.098.768-.832 1.646-1.255 2.634-1.255.58 0 1.113.141 1.6.44.485.281.877.752 1.19 1.379.299.627.456 1.427.456 2.383 0 1.004-.173 1.866-.518 2.572-.345.706-.815 1.254-1.442 1.615-.612.36-1.333.549-2.133.549-.58 0-1.16-.094-1.725-.298v3.544l-1.975.172-.016-10.098Zm5.191 4.406c.408-.533.596-1.333.596-2.368 0-.956-.173-1.662-.502-2.1-.33-.44-.768-.644-1.333-.644-.376 0-.737.095-1.066.267-.33.188-.627.423-.925.721v4.61a3.275 3.275 0 0 0 1.458.314c.784 0 1.364-.267 1.772-.8Zm6.319 1.553a4.784 4.784 0 0 1-1.96-2.023c-.455-.878-.69-1.913-.69-3.104 0-1.302.267-2.4.784-3.309.533-.91 1.239-1.584 2.148-2.038.91-.455 1.929-.69 3.058-.69a8.271 8.271 0 0 1 3.59.815l-.501 1.521c-1.05-.502-2.054-.753-2.995-.753-.8 0-1.505.173-2.117.518-.611.345-1.066.847-1.411 1.505-.33.659-.502 1.474-.502 2.415 0 .831.126 1.552.392 2.195.267.643.659 1.145 1.223 1.521.549.377 1.255.565 2.101.565.377 0 .769-.032 1.145-.094a6.087 6.087 0 0 0 1.082-.283v-2.336H76.91v-1.552h4.595v4.86a9.336 9.336 0 0 1-2.086.706 9.262 9.262 0 0 1-2.164.251c-1.16.016-2.164-.22-3.026-.69Zm14.362.548c-.063-.329-.11-.72-.141-1.144-.298.36-.706.674-1.192.925a3.544 3.544 0 0 1-1.646.376 2.94 2.94 0 0 1-1.349-.298 2.194 2.194 0 0 1-.972-.878c-.235-.392-.36-.862-.36-1.427 0-.83.298-1.505.91-1.991.595-.502 1.599-.753 3.01-.753.533 0 1.05.032 1.568.11v-.172c0-.769-.157-1.302-.486-1.616-.33-.313-.784-.47-1.396-.47-.423 0-.862.063-1.348.188a6.846 6.846 0 0 0-1.255.44l-.313-1.443a7.027 7.027 0 0 1 1.395-.44 8.5 8.5 0 0 1 1.819-.203c.737 0 1.38.11 1.897.345.518.22.925.611 1.223 1.16.298.549.44 1.286.44 2.227v3.418c0 .36.015.894.062 1.615h-1.866v.031Zm-1.176-1.599c.408-.204.753-.439 1.004-.737v-1.6a11.699 11.699 0 0 0-1.317-.093c-.816 0-1.38.125-1.694.392-.314.266-.47.611-.47 1.066 0 .423.11.737.345.94.22.204.533.314.925.314.392.016.8-.094 1.207-.282Zm4.69-.469V17.89l1.96-.157v9.989c0 .36.062.627.188.784.125.156.329.235.596.235.125 0 .297-.032.517-.094l.235 1.411a2.456 2.456 0 0 1-.69.172 4.345 4.345 0 0 1-.768.063c-1.349 0-2.038-.737-2.038-2.226Zm4.907 0V17.89l1.96-.157v9.989c0 .36.062.627.188.784.125.156.33.235.596.235.125 0 .298-.032.517-.094l.235 1.411a2.45 2.45 0 0 1-.69.172 4.344 4.344 0 0 1-.768.063c-1.348 0-2.038-.737-2.038-2.226Zm11.666-1.993h-5.629c.094 1.803.956 2.697 2.572 2.697a5.66 5.66 0 0 0 1.238-.141 7.915 7.915 0 0 0 1.223-.392l.424 1.348c-.957.47-2.039.706-3.246.706-.91 0-1.694-.172-2.321-.517a3.329 3.329 0 0 1-1.411-1.49c-.314-.643-.47-1.427-.47-2.352 0-.956.172-1.772.501-2.462.33-.69.8-1.207 1.396-1.568.596-.36 1.286-.549 2.07-.549.815 0 1.489.189 2.038.565.549.376.957.894 1.207 1.52.267.628.392 1.334.392 2.102l.016.533Zm-1.929-1.254c-.031-.69-.203-1.208-.517-1.537-.314-.345-.721-.517-1.239-.517-.501 0-.909.172-1.254.517-.329.345-.549.863-.643 1.537h3.653Zm3.512-1.129c0-.47-.016-1.192-.063-2.164h1.85c.032.235.063.533.095.862.031.33.047.596.062.816.235-.377.455-.69.675-.957a2.66 2.66 0 0 1 .768-.627c.298-.157.627-.25 1.003-.25a2.9 2.9 0 0 1 .784.093l-.25 1.71a2.058 2.058 0 0 0-.643-.095c-.471 0-.863.126-1.208.36-.345.236-.721.628-1.113 1.177v5.535h-1.96v-6.46Zm6.352 9.958a4.656 4.656 0 0 1-.706-.172l.361-1.443c.125.031.298.078.502.11.203.031.392.047.58.047.878 0 1.521-.565 1.96-1.678l.125-.313-3.167-8.687h2.117l1.599 4.845c.267.83.423 1.458.502 1.913.157-.627.329-1.239.533-1.866l1.615-4.892h1.991l-3.167 8.718c-.298.83-.627 1.49-.972 1.991-.345.502-.753.878-1.223 1.13-.471.25-1.035.36-1.709.36-.345.015-.643 0-.941-.063ZM42.43 7.322h1.992c.659 0 1.207.11 1.678.314.47.204.815.533 1.066.956.25.424.376.941.376 1.537 0 .627-.125 1.176-.392 1.662-.25.486-.627.862-1.113 1.145-.486.282-1.05.407-1.709.407h-1.897v-6.02Zm1.835 5.222c.47 0 .878-.094 1.208-.298.329-.204.58-.486.737-.831.156-.36.25-.768.25-1.223 0-.675-.172-1.176-.533-1.521-.36-.345-.878-.518-1.583-.518h-.847v4.39h.768Zm4.438-5.221h3.56l-.095.862h-2.414v1.662h2.273v.8h-2.273v1.85h2.54l-.094.862h-3.497V7.323Zm1.05-.455 1.083-1.286 1.097.094-1.536 1.27-.643-.078Zm4.516 6.225a2.406 2.406 0 0 1-1.02-1.035c-.235-.455-.345-1.004-.345-1.63 0-.644.126-1.208.36-1.694A2.61 2.61 0 0 1 54.3 7.636c.439-.25.956-.376 1.552-.376a3.655 3.655 0 0 1 1.756.423l-.266.784c-.502-.25-.972-.392-1.443-.392-.407 0-.768.094-1.05.282a1.856 1.856 0 0 0-.659.8c-.141.345-.22.753-.22 1.223 0 .44.079.831.22 1.176.141.33.36.596.659.8.298.188.674.282 1.129.282.47 0 .972-.11 1.474-.345l.235.768c-.251.126-.533.22-.816.298a3.89 3.89 0 0 1-.988.11c-.642-.031-1.175-.141-1.614-.376Zm5.285-.031a2.571 2.571 0 0 1-1.02-1.067c-.235-.454-.344-.988-.344-1.6 0-.642.125-1.19.376-1.661.25-.47.611-.847 1.082-1.098.47-.266 1.019-.392 1.662-.392.611 0 1.129.126 1.568.376.439.251.768.612 1.003 1.067.236.454.345.988.345 1.583 0 .643-.125 1.208-.376 1.694-.25.47-.611.847-1.082 1.098-.47.25-1.02.392-1.646.392-.596-.016-1.114-.142-1.568-.393Zm2.712-.737c.298-.189.518-.47.659-.816a3.08 3.08 0 0 0 .22-1.176 3.32 3.32 0 0 0-.189-1.16 1.687 1.687 0 0 0-.611-.816c-.283-.203-.643-.297-1.082-.297-.424 0-.784.11-1.082.313-.298.204-.518.47-.659.815-.14.345-.22.722-.22 1.13 0 .439.063.83.205 1.175.14.345.345.612.643.816.282.204.642.298 1.066.298.392.015.752-.094 1.05-.282Zm4.202.862a1.81 1.81 0 0 1-.847-.753c-.204-.33-.298-.721-.298-1.176V7.322h1.035v3.78c0 .485.126.846.36 1.097.236.25.597.376 1.067.376.486 0 .847-.125 1.066-.392.22-.25.33-.627.33-1.129V7.322h1.034v3.936c0 .455-.094.862-.297 1.176-.189.33-.47.58-.847.753-.36.172-.8.25-1.302.25a2.799 2.799 0 0 1-1.301-.25Zm4.422-5.865h1.144l1.537 4.234c.031.078.063.188.11.33.047.14.078.266.094.376.094-.33.172-.58.22-.722L75.5 7.307h1.066l-2.32 6.037H73.21l-2.32-6.022Zm6.444 0h1.882c.69 0 1.207.141 1.568.408.36.282.533.674.533 1.176 0 .314-.063.596-.188.847-.126.25-.283.439-.47.595a2.028 2.028 0 0 1-.581.345l1.85 2.666h-1.207l-1.568-2.399h-.768v2.4H77.35l-.016-6.038Zm1.63 2.854c.252 0 .471-.047.675-.141.188-.094.345-.235.455-.423.11-.173.157-.392.157-.628 0-.298-.095-.517-.283-.658-.188-.141-.47-.204-.83-.204h-.753v2.07l.58-.016Zm3.78-2.854h3.56l-.095.863h-2.414v1.662h2.273v.8h-2.273v1.85h2.54l-.094.862h-3.497V7.322Zm8.796 5.159-.078.878h-4.484v-.674l3.104-4.5H87.15l.094-.863h4.171l-.094.675-3.105 4.5 3.325-.016Zm4.109.847a4.116 4.116 0 0 1-.879-.298l.33-.815c.235.11.486.22.768.282.282.063.549.11.768.11.345 0 .596-.079.769-.236a.785.785 0 0 0 .266-.595.683.683 0 0 0-.157-.47 1.706 1.706 0 0 0-.407-.33 11.333 11.333 0 0 0-.721-.345 4.62 4.62 0 0 1-.8-.423 1.675 1.675 0 0 1-.518-.533c-.125-.204-.188-.455-.188-.753 0-.345.079-.643.251-.894.173-.25.408-.439.706-.58.298-.141.658-.204 1.05-.204.298 0 .596.032.894.11.298.063.549.157.737.25l-.204.848c-.502-.236-.972-.361-1.427-.361-.298 0-.533.063-.705.172-.173.11-.267.298-.267.533 0 .157.047.298.141.408.094.11.22.22.392.314.173.094.44.22.784.376.33.141.612.298.816.44.203.14.376.328.486.532.11.204.172.47.172.769 0 .376-.078.705-.25.972-.173.266-.408.47-.722.611-.314.141-.69.204-1.113.204a3.467 3.467 0 0 1-.972-.094Zm5.284-.141a1.807 1.807 0 0 1-.847-.753c-.204-.33-.298-.721-.298-1.176V7.322h1.035v3.78c0 .485.125.846.361 1.097.235.25.595.376 1.066.376.486 0 .847-.125 1.066-.392.22-.267.329-.627.329-1.129V7.322h1.035v3.936c0 .455-.094.862-.298 1.176-.188.33-.47.58-.846.753-.361.172-.8.25-1.302.25a2.837 2.837 0 0 1-1.301-.25Zm5.206-5.865h1.881c.69 0 1.208.141 1.568.408.361.282.533.674.533 1.176 0 .314-.062.596-.188.847a1.8 1.8 0 0 1-.47.595 2.022 2.022 0 0 1-.58.345l1.85 2.666h-1.207l-1.568-2.399h-.769v2.4h-1.035l-.015-6.038Zm1.646 2.854c.251 0 .47-.047.674-.141.188-.094.345-.235.455-.423.11-.173.157-.392.157-.628 0-.298-.094-.517-.282-.658-.189-.141-.471-.204-.831-.204h-.753v2.07l.58-.016Z" fill="#fff"/><path fill-rule="evenodd" clip-rule="evenodd" d="M27.023 7.28H15.89c-5.23 0-7.155 1.915-7.155 7.158V25.57c0 5.242 1.918 7.16 7.16 7.16h11.131c5.242 0 7.163-1.918 7.163-7.16V14.438c-.01-5.243-1.926-7.159-7.167-7.159Z" fill="#C8102E"/><path d="M13.776 20.004h.674v3.327h-.674V21.98h-1.524v1.351h-.676v-3.327h.676v1.342h1.524v-1.342Zm3.802 1.903c0 .541-.268.83-.756.83-.487 0-.76-.297-.76-.853v-1.882h-.676v1.902c0 .941.52 1.473 1.427 1.473.906 0 1.44-.546 1.44-1.5v-1.88h-.675v1.91Zm7.8.384-.754-2.287h-.552l-.754 2.287-.74-2.285h-.718l1.159 3.323h.56l.755-2.184.756 2.184h.564l1.157-3.323h-.7l-.733 2.285Zm2.647-.393h1.228v-.605h-1.228v-.68h1.783v-.607H27.36v3.322h2.509v-.605h-1.844v-.825Zm2.651 1.428h.667v-3.322h-.667v3.322Zm-11.09-.691-.3.693h-.69l1.464-3.324h.596l1.46 3.324h-.708l-.3-.693h-1.521Zm.251-.6h1.016l-.506-1.183-.51 1.184Zm1.623-6.267a4.233 4.233 0 0 1-4.233-4.233h.599a3.638 3.638 0 0 0 7.273 0h.599a4.234 4.234 0 0 1-4.238 4.233Z" fill="#fff"/></svg>